<svg width="1279" height="1169" viewBox="0 0 1279 1169" fill="none" xmlns="http://www.w3.org/2000/svg">
<path d="M1046.44 222.36H1003.91V264.89H1046.44V222.36Z" fill="white"/>
<path d="M1027.46 217.11H1022.89V227.79H1027.46V217.11Z" fill="#639AD6"/>
<path d="M977.49 222.36V308.74C977.49 312.599 975.957 316.3 973.228 319.028C970.5 321.757 966.799 323.29 962.94 323.29H888.16C891.895 323.108 895.415 321.494 897.992 318.785C900.569 316.076 902.004 312.479 902 308.74V222.36H977.49Z" fill="#D6EAF2"/>
<path d="M939.7 217.11H935.13V227.79H939.7V217.11Z" fill="#639AD6"/>
<path d="M916.47 243.23H961.19" stroke="#639AD6" stroke-width="3" stroke-miterlimit="10"/>
<path d="M916.47 254.32H961.19" stroke="#639AD6" stroke-width="3" stroke-miterlimit="10"/>
<path d="M916.47 265.41H961.19" stroke="#639AD6" stroke-width="3" stroke-miterlimit="10"/>
<path d="M916.47 276.49H961.19" stroke="#639AD6" stroke-width="3" stroke-miterlimit="10"/>
<path d="M916.47 287.58H961.19" stroke="#639AD6" stroke-width="3" stroke-miterlimit="10"/>
<path d="M694.69 780.38L638.34 1054.09H643.73L719.14 780.45" fill="#9BAEBC"/>
<path d="M894.57 773.92L952.04 1054.09H946.82L871.48 780.33" fill="#9BAEBC"/>
<path d="M816.29 780.38L872.65 1054.09H867.26L791.85 780.45" fill="#9BAEBC"/>
<path d="M956.11 646L922.08 747C918.624 757.255 912.036 766.166 903.244 772.477C894.453 778.787 883.902 782.177 873.08 782.17H680.58C669.758 782.177 659.207 778.787 650.416 772.477C641.624 766.166 635.036 757.255 631.58 747L603.58 663.88C602.449 660.517 602.134 656.933 602.661 653.425C603.189 649.916 604.544 646.584 606.614 643.702C608.685 640.821 611.411 638.474 614.568 636.854C617.725 635.235 621.222 634.39 624.77 634.39H646.33C651.242 634.388 655.989 632.612 659.696 629.389C663.404 626.167 665.823 621.714 666.51 616.85L679.07 527.69C680.517 517.393 685.636 507.965 693.484 501.144C701.333 494.323 711.382 490.568 721.78 490.57H895.21C901.381 490.569 907.48 491.892 913.095 494.45C918.711 497.007 923.712 500.74 927.762 505.396C931.811 510.052 934.814 515.523 936.569 521.439C938.323 527.355 938.787 533.579 937.93 539.69L927.15 616.62C926.843 618.831 927.013 621.082 927.649 623.221C928.285 625.36 929.372 627.339 930.837 629.022C932.302 630.706 934.111 632.057 936.142 632.983C938.172 633.908 940.378 634.388 942.61 634.39H947.81C949.207 634.385 950.586 634.715 951.829 635.352C953.073 635.989 954.146 636.914 954.959 638.051C955.771 639.188 956.3 640.503 956.5 641.886C956.701 643.269 956.567 644.679 956.11 646V646Z" fill="#9BAEBC"/>
<path d="M941.59 633.31H927.34C918.02 633.235 908.914 636.097 901.313 641.492C893.713 646.886 888.005 654.538 885 663.36L860.62 731.12C857.501 740.402 851.549 748.471 843.601 754.19C835.653 759.91 826.112 762.991 816.32 763H638.89" fill="#9BAEBC"/>
<path d="M941.59 633.31H927.34C918.02 633.235 908.914 636.097 901.313 641.492C893.713 646.886 888.005 654.538 885 663.36L860.62 731.12C857.501 740.402 851.549 748.471 843.601 754.19C835.653 759.91 826.112 762.991 816.32 763H638.89" stroke="white" stroke-width="3" stroke-miterlimit="10"/>
<path d="M1157.76 594.52H145.87V616.21H1157.76V594.52Z" fill="#6E8494"/>
<path d="M1129.73 980.86H1003.73V996.07H1129.73V980.86Z" fill="#9BAEBC"/>
<path d="M1112.2 616.93H1021.07V637.09H1112.2V616.93Z" fill="#6E8494"/>
<path d="M1147.48 1055.88C1145.31 1055.88 1143.21 1055.12 1141.55 1053.74C1139.88 1052.35 1138.76 1050.42 1138.37 1048.29L1068.73 669.45C1068.63 668.966 1068.37 668.529 1067.99 668.216C1067.61 667.902 1067.13 667.731 1066.64 667.731C1066.15 667.731 1065.67 667.902 1065.29 668.216C1064.91 668.529 1064.65 668.966 1064.55 669.45L994.91 1048.29C994.519 1050.42 993.394 1052.35 991.729 1053.73C990.065 1055.12 987.967 1055.88 985.8 1055.88V1055.88C984.441 1055.88 983.099 1055.58 981.869 1055.01C980.638 1054.43 979.55 1053.59 978.68 1052.55C977.811 1051.5 977.182 1050.28 976.838 1048.96C976.494 1047.65 976.444 1046.28 976.69 1044.94L1051.79 636.38H1081.49L1156.59 1044.94C1156.83 1046.28 1156.78 1047.65 1156.44 1048.96C1156.09 1050.28 1155.46 1051.5 1154.6 1052.54C1153.73 1053.59 1152.64 1054.43 1151.41 1055C1150.18 1055.58 1148.84 1055.88 1147.48 1055.88Z" fill="#6E8494"/>
<path d="M300.09 980.86H174.09V996.07H300.09V980.86Z" fill="#9BAEBC"/>
<path d="M282.56 616.93H191.43V637.09H282.56V616.93Z" fill="#6E8494"/>
<path d="M317.84 1055.88C315.673 1055.88 313.575 1055.12 311.911 1053.73C310.246 1052.35 309.121 1050.42 308.73 1048.29L239.09 669.46C238.995 668.976 238.734 668.539 238.353 668.226C237.972 667.912 237.494 667.741 237 667.741C236.506 667.741 236.028 667.912 235.647 668.226C235.266 668.539 235.005 668.976 234.91 669.46L165.27 1048.29C164.881 1050.42 163.756 1052.35 162.091 1053.74C160.426 1055.12 158.327 1055.88 156.16 1055.88C154.801 1055.88 153.459 1055.58 152.229 1055.01C150.998 1054.43 149.91 1053.59 149.04 1052.55C148.171 1051.5 147.542 1050.28 147.198 1048.96C146.854 1047.65 146.804 1046.28 147.05 1044.94L222.15 636.38H251.85L327 1044.94C327.247 1046.28 327.196 1047.66 326.849 1048.98C326.502 1050.29 325.869 1051.52 324.994 1052.56C324.119 1053.61 323.024 1054.45 321.787 1055.02C320.551 1055.59 319.203 1055.89 317.84 1055.88V1055.88Z" fill="#6E8494"/>
<path d="M563.44 450.7H400.83C399.035 450.699 397.266 451.133 395.674 451.964C394.083 452.795 392.716 453.998 391.69 455.472C390.665 456.946 390.011 458.645 389.784 460.426C389.558 462.207 389.766 464.017 390.39 465.7L431.39 577.11H621.8L579.41 461.84C578.21 458.571 576.034 455.749 573.178 453.757C570.322 451.765 566.922 450.698 563.44 450.7V450.7Z" fill="#247E7C"/>
<path d="M560.25 456.35H401.68C399.927 456.35 398.2 456.773 396.647 457.585C395.093 458.397 393.759 459.573 392.759 461.013C391.759 462.452 391.122 464.113 390.902 465.852C390.683 467.591 390.888 469.357 391.5 471L431.5 579.63H617.15L575.81 467.21C574.638 464.026 572.518 461.278 569.736 459.336C566.954 457.394 563.643 456.352 560.25 456.35Z" fill="#039590"/>
<path d="M431 577.08H742.93C747.154 577.08 751.205 578.757 754.194 581.742C757.183 584.727 758.865 588.776 758.87 593V593.43H447C444.903 593.438 442.826 593.032 440.886 592.236C438.947 591.44 437.183 590.268 435.697 588.79C434.211 587.311 433.031 585.553 432.225 583.618C431.419 581.682 431.003 579.607 431 577.51V577.08Z" fill="#247E7C"/>
<path d="M513.404 530.992C519.228 524.524 517.478 513.453 509.495 506.265C501.512 499.078 490.319 498.494 484.495 504.963C478.671 511.431 480.421 522.502 488.404 529.689C496.387 536.877 507.579 537.46 513.404 530.992Z" fill="#66AFAD"/>
<path d="M662.06 582.93H648.77V587.7H662.06V582.93Z" fill="#66AFAD"/>
<path d="M687.45 582.93H674.16V587.7H687.45V582.93Z" fill="#247E7C"/>
<path d="M1005.26 548.66H1000.11V538.25H953.2V585.62C953.2 587.98 954.138 590.244 955.807 591.913C957.476 593.582 959.74 594.52 962.1 594.52H991.21C992.379 594.521 993.537 594.292 994.617 593.845C995.698 593.398 996.679 592.743 997.506 591.916C998.333 591.089 998.988 590.108 999.435 589.027C999.882 587.947 1000.11 586.789 1000.11 585.62V569.48H1005.26C1008.02 569.48 1010.67 568.383 1012.62 566.431C1014.57 564.479 1015.67 561.831 1015.67 559.07C1015.67 556.309 1014.57 553.661 1012.62 551.709C1010.67 549.757 1008.02 548.66 1005.26 548.66V548.66ZM1008.91 562.94C1008.4 563.45 1007.8 563.854 1007.14 564.13C1006.47 564.407 1005.76 564.549 1005.04 564.55H1000.11V553.55H1005C1006.08 553.547 1007.15 553.867 1008.05 554.468C1008.95 555.07 1009.65 555.926 1010.07 556.928C1010.48 557.93 1010.59 559.033 1010.38 560.096C1010.16 561.16 1009.64 562.136 1008.87 562.9L1008.91 562.94Z" fill="white" stroke="#6E8494" stroke-width="3" stroke-miterlimit="10"/>
<path d="M980.23 533.83C977.76 531.3 964.83 522.83 967.72 510.64C970.61 498.45 988.92 501.09 988.36 487.48C987.89 475.93 977.76 480.55 975.55 484.76C975.55 484.76 976.89 469.52 990.81 474.61C1014.31 483.21 987.02 507.61 979.23 514.37C972.06 520.54 980.23 533.83 980.23 533.83Z" fill="#6E8494"/>
<path d="M996.66 501.14C996.66 501.14 993.66 511.42 981.45 516.48C981.45 516.48 1000.2 516.48 996.66 501.14Z" fill="#6E8494"/>
<path d="M1131.84 594.52C1131.84 594.52 1167 401.9 990.9 375" stroke="#6E8494" stroke-width="3" stroke-miterlimit="10"/>
<path d="M1132.53 593.45H1038.78C1045.33 578.28 1063.84 567.35 1085.65 567.35C1107.46 567.35 1126 578.28 1132.53 593.45Z" fill="#9BAEBC"/>
<path d="M1132.53 593.45H1120.73C1114.52 579.06 1096.95 568.68 1076.25 568.68C1074.8 568.68 1073.36 568.73 1071.93 568.84C1076.44 567.844 1081.04 567.344 1085.65 567.35C1107.47 567.35 1126 578.28 1132.53 593.45Z" fill="#6E8494"/>
<path d="M992.4 376.79C991.56 380.6 988.56 383.58 984.3 385.39C979.41 387.48 972.88 388.02 966.07 386.52C959.26 385.02 953.57 381.76 950.01 377.81C946.91 374.37 945.45 370.41 946.29 366.6C948.1 358.41 959.89 354.06 972.62 356.87C985.35 359.68 994.21 368.61 992.4 376.79Z" fill="#9BAEBC"/>
<path d="M992.4 376.79C991.61 380.37 988.91 383.21 985.06 385.05C986.876 383.621 988.156 381.619 988.69 379.37C990.38 371.74 982.12 363.42 970.24 360.79C959.04 358.32 948.62 361.79 946.06 368.59C946.067 367.917 946.144 367.247 946.29 366.59C948.1 358.4 959.89 354.05 972.62 356.86C985.35 359.67 994.21 368.61 992.4 376.79Z" fill="#9BAEBC"/>
<path d="M981.72 383.49C976.845 385.22 971.582 385.546 966.53 384.431C961.479 383.315 956.843 380.803 953.15 377.18C951.51 373.57 961.24 372.32 968.84 374C976.44 375.68 984.86 381.6 981.72 383.49Z" fill="#6E8494"/>
<path d="M219.66 295.33H553V325.86L219.6 297.68C218.71 297.6 218.77 295.33 219.66 295.33Z" fill="#D6EAF2"/>
<path d="M517.04 144.39H503.02C500.176 144.39 497.87 146.696 497.87 149.54V264.39C497.87 267.234 500.176 269.54 503.02 269.54H517.04C519.884 269.54 522.19 267.234 522.19 264.39V149.54C522.19 146.696 519.884 144.39 517.04 144.39Z" fill="white" stroke="#876E7D" stroke-width="3" stroke-miterlimit="10"/>
<path d="M491.34 154.98H474.6C471.822 154.98 469.57 157.232 469.57 160.01V266.99C469.57 269.768 471.822 272.02 474.6 272.02H491.34C494.118 272.02 496.37 269.768 496.37 266.99V160.01C496.37 157.232 494.118 154.98 491.34 154.98Z" fill="#876E7D"/>
<path d="M464.88 126.56H460.36C457.77 126.56 455.67 128.66 455.67 131.25V267.33C455.67 269.92 457.77 272.02 460.36 272.02H464.88C467.47 272.02 469.57 269.92 469.57 267.33V131.25C469.57 128.66 467.47 126.56 464.88 126.56Z" fill="#9BAEBC"/>
<path d="M449.54 163.45H437.5C434.661 163.45 432.36 165.751 432.36 168.59V265.39C432.36 268.229 434.661 270.53 437.5 270.53H449.54C452.379 270.53 454.68 268.229 454.68 265.39V168.59C454.68 165.751 452.379 163.45 449.54 163.45Z" fill="white" stroke="#876E7D" stroke-width="3" stroke-miterlimit="10"/>
<path d="M390.85 272H371.36L420.1 141.45C420.284 140.942 420.62 140.503 421.061 140.192C421.503 139.881 422.03 139.712 422.57 139.71H436.39C436.823 139.714 437.248 139.822 437.63 140.026C438.012 140.23 438.339 140.523 438.583 140.881C438.826 141.239 438.98 141.65 439.03 142.08C439.08 142.51 439.025 142.946 438.87 143.35L390.85 272Z" fill="#876E7D"/>
<path d="M552.04 272.02H220.39V293.9H552.04V272.02Z" fill="white" stroke="#6E8494" stroke-width="3" stroke-miterlimit="10"/>
<path d="M253.9 223.5H337.61V232.69C337.605 243.116 333.46 253.113 326.087 260.484C318.714 267.855 308.716 271.997 298.29 272H293.23C282.799 272 272.795 267.856 265.419 260.48C258.044 253.105 253.9 243.101 253.9 232.67V223.5V223.5Z" fill="#876E7D"/>
<path d="M329.22 223.5H267.17C267.17 223.5 249.04 238.3 238.68 226.17C231.18 217.38 267.07 216.99 267.07 216.99L268.15 216.61C268.15 216.61 252.76 184.3 267.3 178.9C277.35 175.17 279.79 202.55 280.3 211.45C285.6 209.23 295.92 206.04 296.8 214.45C296.8 214.45 297.95 179.86 312.45 183.17C324.5 185.91 306.62 218.42 306.62 218.42L307.88 219.19C307.88 219.19 341 195 349.11 200.59C355.28 204.86 329.22 223.5 329.22 223.5Z" fill="#948900"/>
<path d="M276.7 223.5C276.7 223.5 277.35 193.69 288.57 194.5C299.79 195.31 284.15 223.5 284.15 223.5H276.7Z" fill="#B0A81F"/>
<path d="M276.7 223.5C276.7 223.5 265.44 195.37 250.18 202.57C235.28 209.57 267.35 223.5 267.35 223.5H276.7Z" fill="#B0A81F"/>
<path d="M299.85 223.5C299.85 223.5 310 198.15 326 200.56C342 202.97 306.2 223.5 306.2 223.5H299.85Z" fill="#B0A81F"/>
<path d="M316.34 223.5C316.34 223.5 347.7 207.71 353.34 217.23C358.98 226.75 316.34 223.5 316.34 223.5Z" fill="#B0A81F"/>
<path d="M422.84 936.39C422.84 936.39 425.3 768.8 503.5 669.46C503.5 669.46 463.17 725.94 450.2 936.39H422.84Z" fill="#948900"/>
<path d="M438.84 936.39C438.84 936.39 456.4 757.12 362.51 690.05C362.51 690.05 439.42 760.12 406.4 936.39H438.84Z" fill="#948900"/>
<path d="M428.57 933.88C428.57 933.88 427.99 773.88 342.84 735.88C342.84 735.88 427.99 797.77 400.54 933.88H428.57Z" fill="#948900"/>
<path d="M414.19 936.39C414.19 936.39 394.19 757.49 458.42 694.91C458.42 694.91 422.84 765.77 438.84 936.39H414.19Z" fill="#B0A81F"/>
<path d="M435.4 936.39C435.4 936.39 435.4 796.12 516.02 769.87C516.02 769.87 450.69 841.21 460.41 936.39H435.4Z" fill="#B0A81F"/>
<path d="M395.57 936.39C395.57 936.39 407.1 861.76 348.39 828.31C348.39 828.31 416.94 843.4 414.19 936.39H395.57Z" fill="#B0A81F"/>
<path d="M464.78 935.52H391.2C383.744 935.52 377.7 941.564 377.7 949.02V1022.6C377.7 1030.06 383.744 1036.1 391.2 1036.1H464.78C472.236 1036.1 478.28 1030.06 478.28 1022.6V949.02C478.28 941.564 472.236 935.52 464.78 935.52Z" fill="white" stroke="#6E8494" stroke-width="3" stroke-linecap="round" stroke-linejoin="round"/>
</svg>
