<svg width="1369" height="1042" viewBox="0 0 1369 1042" fill="none" xmlns="http://www.w3.org/2000/svg">
<path d="M1060.48 608.86H177.94V933.16H1060.48V608.86Z" fill="#EEF2F7"/>
<path d="M357.3 633.14H203.03V910.69H357.3V633.14Z" stroke="#9BAEBC" stroke-width="3" stroke-linecap="round" stroke-linejoin="round"/>
<path d="M340.57 774.25C344.53 774.25 347.74 771.04 347.74 767.08C347.74 763.12 344.53 759.91 340.57 759.91C336.61 759.91 333.4 763.12 333.4 767.08C333.4 771.04 336.61 774.25 340.57 774.25Z" stroke="#9BAEBC" stroke-width="3" stroke-linecap="round" stroke-linejoin="round"/>
<path d="M383.59 774.25C387.55 774.25 390.76 771.04 390.76 767.08C390.76 763.12 387.55 759.91 383.59 759.91C379.63 759.91 376.42 763.12 376.42 767.08C376.42 771.04 379.63 774.25 383.59 774.25Z" stroke="#9BAEBC" stroke-width="3" stroke-linecap="round" stroke-linejoin="round"/>
<path d="M523.91 633.14H369.64V910.69H523.91V633.14Z" stroke="#9BAEBC" stroke-width="3" stroke-linecap="round" stroke-linejoin="round"/>
<path d="M1039.54 633.14H885.27V910.69H1039.54V633.14Z" stroke="#9BAEBC" stroke-width="3" stroke-linecap="round" stroke-linejoin="round"/>
<path d="M901.65 774.25C905.61 774.25 908.82 771.04 908.82 767.08C908.82 763.12 905.61 759.91 901.65 759.91C897.69 759.91 894.48 763.12 894.48 767.08C894.48 771.04 897.69 774.25 901.65 774.25Z" stroke="#9BAEBC" stroke-width="3" stroke-linecap="round" stroke-linejoin="round"/>
<path d="M840.36 632.7H605.76V690.33H840.36V632.7Z" stroke="#9BAEBC" stroke-width="3" stroke-linecap="round" stroke-linejoin="round"/>
<path d="M840.36 700.09H605.76V910.69H840.36V700.09Z" stroke="#9BAEBC" stroke-width="3" stroke-linecap="round" stroke-linejoin="round"/>
<path d="M817.61 751.55H638.08V885.04H817.61V751.55Z" fill="white"/>
<path d="M812.83 746.77H633.3V880.26H812.83V746.77Z" stroke="#9BAEBC" stroke-width="3" stroke-linecap="round" stroke-linejoin="round"/>
<path d="M809.4 716.46H636.01C635.115 716.46 634.39 717.185 634.39 718.08V724.76C634.39 725.655 635.115 726.38 636.01 726.38H809.4C810.295 726.38 811.02 725.655 811.02 724.76V718.08C811.02 717.185 810.295 716.46 809.4 716.46Z" stroke="#9BAEBC" stroke-width="3" stroke-linecap="round" stroke-linejoin="round"/>
<path d="M719.82 746.77L634.07 832.52" stroke="#9BAEBC" stroke-width="3" stroke-linecap="round" stroke-linejoin="round"/>
<path d="M739.32 746.77L633.3 852.79" stroke="#9BAEBC" stroke-width="3" stroke-linecap="round" stroke-linejoin="round"/>
<path d="M778.03 746.77L644.54 880.26" stroke="#9BAEBC" stroke-width="3" stroke-linecap="round" stroke-linejoin="round"/>
<path d="M801.28 672.29C807.659 672.29 812.83 667.119 812.83 660.74C812.83 654.361 807.659 649.19 801.28 649.19C794.901 649.19 789.73 654.361 789.73 660.74C789.73 667.119 794.901 672.29 801.28 672.29Z" stroke="#9BAEBC" stroke-width="3" stroke-linecap="round" stroke-linejoin="round"/>
<path d="M801.28 653.72V649.19" stroke="#9BAEBC" stroke-width="3" stroke-linecap="round" stroke-linejoin="round"/>
<path d="M801.28 672.29V667.76" stroke="#9BAEBC" stroke-width="3" stroke-linecap="round" stroke-linejoin="round"/>
<path d="M794.26 660.26H789.73" stroke="#9BAEBC" stroke-width="3" stroke-linecap="round" stroke-linejoin="round"/>
<path d="M812.83 660.26H808.3" stroke="#9BAEBC" stroke-width="3" stroke-linecap="round" stroke-linejoin="round"/>
<path d="M801.28 656.69V660.74H804.86" stroke="#9BAEBC" stroke-width="3" stroke-linecap="round" stroke-linejoin="round"/>
<path d="M690.36 670.47C693.906 670.47 696.78 667.596 696.78 664.05C696.78 660.504 693.906 657.63 690.36 657.63C686.814 657.63 683.94 660.504 683.94 664.05C683.94 667.596 686.814 670.47 690.36 670.47Z" fill="white"/>
<path d="M714.73 670.47C718.276 670.47 721.15 667.596 721.15 664.05C721.15 660.504 718.276 657.63 714.73 657.63C711.184 657.63 708.31 660.504 708.31 664.05C708.31 667.596 711.184 670.47 714.73 670.47Z" fill="white"/>
<path d="M739.11 670.47C742.656 670.47 745.53 667.596 745.53 664.05C745.53 660.504 742.656 657.63 739.11 657.63C735.564 657.63 732.69 660.504 732.69 664.05C732.69 667.596 735.564 670.47 739.11 670.47Z" fill="white"/>
<path d="M763.48 670.47C767.026 670.47 769.9 667.596 769.9 664.05C769.9 660.504 767.026 657.63 763.48 657.63C759.934 657.63 757.06 660.504 757.06 664.05C757.06 667.596 759.934 670.47 763.48 670.47Z" fill="white"/>
<path d="M687.97 668.56C691.516 668.56 694.39 665.686 694.39 662.14C694.39 658.594 691.516 655.72 687.97 655.72C684.424 655.72 681.55 658.594 681.55 662.14C681.55 665.686 684.424 668.56 687.97 668.56Z" stroke="#9BAEBC" stroke-width="3" stroke-linecap="round" stroke-linejoin="round"/>
<path d="M712.34 668.56C715.886 668.56 718.76 665.686 718.76 662.14C718.76 658.594 715.886 655.72 712.34 655.72C708.794 655.72 705.92 658.594 705.92 662.14C705.92 665.686 708.794 668.56 712.34 668.56Z" stroke="#9BAEBC" stroke-width="3" stroke-linecap="round" stroke-linejoin="round"/>
<path d="M736.72 668.56C740.266 668.56 743.14 665.686 743.14 662.14C743.14 658.594 740.266 655.72 736.72 655.72C733.174 655.72 730.3 658.594 730.3 662.14C730.3 665.686 733.174 668.56 736.72 668.56Z" stroke="#9BAEBC" stroke-width="3" stroke-linecap="round" stroke-linejoin="round"/>
<path d="M761.09 668.56C764.636 668.56 767.51 665.686 767.51 662.14C767.51 658.594 764.636 655.72 761.09 655.72C757.544 655.72 754.67 658.594 754.67 662.14C754.67 665.686 757.544 668.56 761.09 668.56Z" stroke="#9BAEBC" stroke-width="3" stroke-linecap="round" stroke-linejoin="round"/>
<path d="M680.02 457.94C680.976 457.029 682.193 456.438 683.5 456.25L704.87 453.52L709.87 448.95L736.45 477.72L708.33 503.72C698.8 512.52 685.1 513.72 677.61 506.17C673.66 502.17 672.18 496.58 672.97 490.87C673.911 484.828 676.91 479.296 681.46 475.21L685.98 471.04C687.17 469.94 687.07 468.2 685.79 467.71L679.93 465.44C679.55 465.264 679.209 465.012 678.93 464.7C677.34 463.05 677.75 460.04 680.02 457.94Z" stroke="#9BAEBC" stroke-width="3" stroke-linecap="round" stroke-linejoin="round"/>
<path d="M709.66 448.767L736.537 477.863C737.234 478.618 738.411 478.664 739.165 477.967L740.355 476.868C741.11 476.171 741.156 474.994 740.459 474.24L713.582 445.144C712.885 444.389 711.708 444.342 710.954 445.039L709.764 446.139C709.009 446.836 708.963 448.013 709.66 448.767Z" fill="white" stroke="#9BAEBC" stroke-width="3" stroke-linecap="round" stroke-linejoin="round"/>
<path d="M715.25 436.86C715.17 438.52 711.93 443.6 711.93 443.6C711.93 443.6 709.15 438.26 709.23 436.6C709.266 435.804 709.616 435.056 710.204 434.518C710.792 433.981 711.569 433.699 712.365 433.735C713.161 433.771 713.909 434.121 714.447 434.709C714.984 435.297 715.266 436.074 715.23 436.87L715.25 436.86Z" stroke="#9BAEBC" stroke-width="3" stroke-linecap="round" stroke-linejoin="round"/>
<path d="M676.97 433.21H759.24" stroke="#9BAEBC" stroke-width="3" stroke-linecap="round" stroke-linejoin="round"/>
<path d="M835.37 500.67H828.79C826.424 500.686 824.148 499.764 822.461 498.105C820.774 496.446 819.814 494.186 819.79 491.82V489.9C819.79 488.747 820.018 487.605 820.46 486.54C820.667 486.047 820.922 485.575 821.22 485.13C821.662 484.062 821.89 482.916 821.89 481.76V480.51C821.869 478.142 820.909 475.88 819.222 474.219C817.535 472.558 815.258 471.634 812.89 471.65H811.61C809.242 471.634 806.965 472.558 805.278 474.219C803.591 475.88 802.631 478.142 802.61 480.51V481.76C802.61 482.916 802.838 484.062 803.28 485.13C803.578 485.575 803.833 486.047 804.04 486.54C804.482 487.605 804.71 488.747 804.71 489.9V491.82C804.71 496.7 800.71 502.1 795.71 502.1H789.12C782.9 502.1 777.85 505.63 777.85 511.75V587.27C777.876 590.233 779.078 593.065 781.192 595.143C783.305 597.22 786.157 598.374 789.12 598.35H835.43C838.385 598.361 841.224 597.201 843.326 595.125C845.429 593.049 846.624 590.225 846.65 587.27V511.75C846.637 510.282 846.335 508.831 845.761 507.479C845.187 506.128 844.352 504.903 843.305 503.874C842.257 502.845 841.018 502.032 839.656 501.483C838.295 500.933 836.838 500.657 835.37 500.67ZM812.25 484.06C811.757 484.052 811.277 483.899 810.871 483.619C810.465 483.339 810.151 482.945 809.968 482.487C809.785 482.029 809.742 481.527 809.844 481.045C809.946 480.562 810.188 480.12 810.54 479.775C810.892 479.43 811.338 479.197 811.823 479.104C812.307 479.012 812.808 479.065 813.263 479.257C813.717 479.449 814.104 479.771 814.376 480.183C814.648 480.594 814.792 481.077 814.79 481.57C814.782 482.237 814.51 482.873 814.034 483.34C813.558 483.806 812.917 484.065 812.25 484.06V484.06Z" fill="white"/>
<path d="M832.03 498.95H825.44C823.053 498.95 820.764 498.002 819.076 496.314C817.388 494.626 816.44 492.337 816.44 489.95V488.01C816.44 486.837 816.667 485.676 817.11 484.59C817.315 484.086 817.57 483.604 817.87 483.15C818.313 482.061 818.54 480.896 818.54 479.72V478.45C818.54 476.063 817.592 473.774 815.904 472.086C814.216 470.398 811.927 469.45 809.54 469.45H808.25C805.863 469.45 803.574 470.398 801.886 472.086C800.198 473.774 799.25 476.063 799.25 478.45V479.72C799.25 480.896 799.477 482.061 799.92 483.15C800.22 483.604 800.475 484.086 800.68 484.59C801.123 485.676 801.35 486.837 801.35 488.01V489.95C801.35 492.337 800.402 494.626 798.714 496.314C797.026 498.002 794.737 498.95 792.35 498.95H785.76C784.28 498.949 782.815 499.239 781.448 499.804C780.081 500.37 778.838 501.199 777.792 502.244C776.745 503.29 775.915 504.532 775.348 505.899C774.782 507.265 774.49 508.73 774.49 510.21V587.11C774.49 590.099 775.677 592.966 777.791 595.079C779.904 597.193 782.771 598.38 785.76 598.38H832.07C835.059 598.38 837.926 597.193 840.039 595.079C842.153 592.966 843.34 590.099 843.34 587.11V510.21C843.34 508.727 843.047 507.259 842.478 505.889C841.909 504.52 841.075 503.277 840.024 502.23C838.973 501.184 837.726 500.356 836.354 499.793C834.982 499.23 833.513 498.943 832.03 498.95V498.95ZM808.87 482.04C808.368 482.04 807.877 481.891 807.459 481.612C807.041 481.333 806.716 480.936 806.523 480.472C806.331 480.008 806.281 479.497 806.379 479.005C806.477 478.512 806.719 478.059 807.074 477.704C807.429 477.349 807.882 477.107 808.374 477.009C808.867 476.911 809.378 476.961 809.842 477.153C810.306 477.346 810.703 477.671 810.982 478.089C811.261 478.507 811.41 478.998 811.41 479.5C811.41 480.174 811.142 480.82 810.666 481.296C810.19 481.772 809.544 482.04 808.87 482.04V482.04Z" stroke="#9BAEBC" stroke-width="3" stroke-linecap="round" stroke-linejoin="round"/>
<path d="M1060.48 89.36H177.94V413.66H1060.48V89.36Z" fill="#EEF2F7"/>
<path d="M177.94 413.66H1061.73" stroke="#9BAEBC" stroke-width="3" stroke-linecap="round" stroke-linejoin="round"/>
<path d="M544.72 89.25V413.65" stroke="#9BAEBC" stroke-width="3" stroke-linecap="round" stroke-linejoin="round"/>
<path d="M864.36 89.25V413.65" stroke="#9BAEBC" stroke-width="3" stroke-linecap="round" stroke-linejoin="round"/>
<path d="M864.37 238.46H544.72V254.89H864.37V238.46Z" stroke="#9BAEBC" stroke-width="3" stroke-linecap="round" stroke-linejoin="round"/>
<path d="M864.37 89.25H544.72V105.68H864.37V89.25Z" stroke="#9BAEBC" stroke-width="3" stroke-linecap="round" stroke-linejoin="round"/>
<path d="M864.37 397.23H544.72V413.66H864.37V397.23Z" stroke="#9BAEBC" stroke-width="3" stroke-linecap="round" stroke-linejoin="round"/>
<path d="M357.3 112.74H203.03V390.29H357.3V112.74Z" stroke="#9BAEBC" stroke-width="3" stroke-linecap="round" stroke-linejoin="round"/>
<path d="M340.57 253.85C344.53 253.85 347.74 250.64 347.74 246.68C347.74 242.72 344.53 239.51 340.57 239.51C336.61 239.51 333.4 242.72 333.4 246.68C333.4 250.64 336.61 253.85 340.57 253.85Z" stroke="#9BAEBC" stroke-width="3" stroke-linecap="round" stroke-linejoin="round"/>
<path d="M383.59 253.85C387.55 253.85 390.76 250.64 390.76 246.68C390.76 242.72 387.55 239.51 383.59 239.51C379.63 239.51 376.42 242.72 376.42 246.68C376.42 250.64 379.63 253.85 383.59 253.85Z" stroke="#9BAEBC" stroke-width="3" stroke-linecap="round" stroke-linejoin="round"/>
<path d="M523.91 112.74H369.64V390.29H523.91V112.74Z" stroke="#9BAEBC" stroke-width="3" stroke-linecap="round" stroke-linejoin="round"/>
<path d="M177.94 89.25H1061.47" stroke="#9BAEBC" stroke-width="3" stroke-linecap="round" stroke-linejoin="round"/>
<path d="M1039.54 112.74H885.27V390.29H1039.54V112.74Z" stroke="#9BAEBC" stroke-width="3" stroke-linecap="round" stroke-linejoin="round"/>
<path d="M901.65 253.85C905.61 253.85 908.82 250.64 908.82 246.68C908.82 242.72 905.61 239.51 901.65 239.51C897.69 239.51 894.48 242.72 894.48 246.68C894.48 250.64 897.69 253.85 901.65 253.85Z" stroke="#9BAEBC" stroke-width="3" stroke-linecap="round" stroke-linejoin="round"/>
<path d="M825.92 197.66C825.92 215.73 815.92 231.14 801.83 237.17H775.52C761.44 231.17 751.43 215.73 751.43 197.66C751.43 181.74 759.2 167.88 770.68 160.66C771.736 160.001 772.608 159.085 773.213 157.997C773.818 156.909 774.137 155.685 774.14 154.44V154.44C774.139 153.21 773.828 151.999 773.235 150.921C772.643 149.842 771.788 148.931 770.75 148.27L767.05 145.91C766.82 145.762 766.645 145.544 766.55 145.288C766.455 145.032 766.446 144.752 766.523 144.491C766.601 144.229 766.762 144 766.981 143.837C767.201 143.675 767.467 143.588 767.74 143.59H802.1C802.436 143.588 802.768 143.658 803.075 143.797C803.381 143.935 803.653 144.138 803.874 144.392C804.094 144.645 804.257 144.944 804.351 145.266C804.446 145.589 804.469 145.928 804.42 146.26L803.21 154.46C803.213 155.705 803.532 156.929 804.137 158.017C804.742 159.105 805.614 160.021 806.67 160.68C818.14 167.88 825.92 181.74 825.92 197.66Z" fill="white"/>
<path d="M820.84 197.87C820.84 216.33 810.66 232.08 796.33 238.24H769.56C755.23 232.09 745.04 216.33 745.04 197.87C745.04 181.6 752.95 167.44 764.64 160.09C765.715 159.412 766.602 158.474 767.217 157.362C767.832 156.25 768.157 155.001 768.16 153.73V153.73C768.161 152.471 767.845 151.231 767.24 150.127C766.635 149.022 765.761 148.088 764.7 147.41L760.94 144.99C760.708 144.838 760.53 144.616 760.435 144.355C760.339 144.095 760.33 143.811 760.408 143.545C760.487 143.278 760.649 143.045 760.871 142.878C761.093 142.712 761.363 142.621 761.64 142.62H796.64C796.982 142.621 797.32 142.695 797.631 142.838C797.942 142.98 798.219 143.188 798.442 143.447C798.666 143.706 798.832 144.01 798.928 144.338C799.024 144.666 799.049 145.011 799 145.35L797.76 153.73C797.762 155.002 798.087 156.253 798.705 157.365C799.322 158.478 800.212 159.415 801.29 160.09C812.94 167.44 820.84 181.61 820.84 197.87Z" stroke="#9BAEBC" stroke-width="3" stroke-linecap="round" stroke-linejoin="round"/>
<path d="M808.25 166.11H814.45C817.1 166.107 819.724 166.627 822.173 167.639C824.621 168.65 826.847 170.135 828.722 172.007C830.597 173.879 832.084 176.102 833.1 178.55C834.115 180.997 834.639 183.62 834.64 186.27V195.09C834.64 199.193 833.01 203.128 830.109 206.029C827.208 208.93 823.273 210.56 819.17 210.56V210.56" stroke="#9BAEBC" stroke-width="3" stroke-linecap="round" stroke-linejoin="round"/>
<path d="M634.09 396.7C663.836 396.7 687.95 372.586 687.95 342.84C687.95 313.094 663.836 288.98 634.09 288.98C604.344 288.98 580.23 313.094 580.23 342.84C580.23 372.586 604.344 396.7 634.09 396.7Z" fill="white"/>
<path d="M628.26 396.7C658.807 396.7 683.57 371.937 683.57 341.39C683.57 310.843 658.807 286.08 628.26 286.08C597.713 286.08 572.95 310.843 572.95 341.39C572.95 371.937 597.713 396.7 628.26 396.7Z" stroke="#9BAEBC" stroke-width="3" stroke-linecap="round" stroke-linejoin="round"/>
<path d="M628.26 372.21C645.281 372.21 659.08 358.411 659.08 341.39C659.08 324.369 645.281 310.57 628.26 310.57C611.239 310.57 597.44 324.369 597.44 341.39C597.44 358.411 611.239 372.21 628.26 372.21Z" stroke="#9BAEBC" stroke-width="3" stroke-linecap="round" stroke-linejoin="round"/>
<path d="M726.19 356.99H808.08C808.08 358.68 807.409 360.302 806.215 361.498C805.021 362.694 803.4 363.367 801.71 363.37H732.57C730.878 363.37 729.255 362.698 728.059 361.501C726.862 360.305 726.19 358.682 726.19 356.99V356.99Z" fill="#C6EFFF"/>
<path d="M718.65 371.16H815.65C815.65 373.162 814.854 375.083 813.439 376.499C812.023 377.915 810.102 378.71 808.1 378.71H726.25C724.247 378.71 722.327 377.915 720.911 376.499C719.495 375.083 718.7 373.162 718.7 371.16H718.65Z" fill="#C6EFFF"/>
<path d="M708.33 387.54H825.95C825.947 389.968 824.981 392.295 823.263 394.011C821.546 395.726 819.218 396.69 816.79 396.69H717.48C715.053 396.69 712.726 395.726 711.01 394.01C709.294 392.294 708.33 389.967 708.33 387.54V387.54Z" fill="white"/>
<path d="M725.59 356.58H808.69C808.69 358.296 808.008 359.942 806.795 361.155C805.582 362.368 803.936 363.05 802.22 363.05H732.06C730.344 363.05 728.698 362.368 727.485 361.155C726.272 359.942 725.59 358.296 725.59 356.58V356.58Z" fill="white"/>
<path d="M714.89 350.39H819.39C819.65 350.392 819.9 350.485 820.098 350.652C820.297 350.819 820.43 351.051 820.475 351.307C820.52 351.562 820.475 351.826 820.346 352.051C820.217 352.276 820.013 352.449 819.77 352.54L808.69 356.54H725.59L714.51 352.54C714.267 352.449 714.063 352.276 713.934 352.051C713.805 351.826 713.76 351.562 713.805 351.307C713.85 351.051 713.983 350.819 714.181 350.652C714.38 350.485 714.63 350.392 714.89 350.39V350.39Z" stroke="#9BAEBC" stroke-width="3" stroke-linecap="round" stroke-linejoin="round"/>
<path d="M717.94 370.45H816.34C816.34 372.482 815.533 374.43 814.096 375.866C812.66 377.303 810.711 378.11 808.68 378.11H725.6C723.568 378.11 721.62 377.303 720.183 375.866C718.747 374.43 717.94 372.482 717.94 370.45V370.45Z" fill="white"/>
<path d="M705.25 363.12H829.01C829.318 363.12 829.615 363.229 829.851 363.426C830.087 363.624 830.245 363.898 830.299 364.201C830.353 364.504 830.298 364.817 830.145 365.083C829.991 365.35 829.749 365.554 829.46 365.66L816.34 370.45H717.94L704.81 365.66C704.522 365.554 704.28 365.351 704.126 365.085C703.973 364.82 703.918 364.509 703.97 364.206C704.022 363.904 704.179 363.63 704.413 363.431C704.647 363.233 704.943 363.122 705.25 363.12V363.12Z" stroke="#9BAEBC" stroke-width="3" stroke-linecap="round" stroke-linejoin="round"/>
<path d="M692.09 378.18H842.19C842.562 378.181 842.922 378.313 843.208 378.552C843.493 378.792 843.685 379.124 843.75 379.49C843.816 379.857 843.75 380.235 843.566 380.558C843.381 380.882 843.089 381.13 842.74 381.26L826.82 387.06H707.46L691.54 381.27C691.184 381.145 690.884 380.897 690.694 380.571C690.503 380.246 690.435 379.863 690.501 379.491C690.568 379.12 690.764 378.784 691.055 378.544C691.346 378.303 691.713 378.174 692.09 378.18V378.18Z" stroke="#9BAEBC" stroke-width="3" stroke-linecap="round" stroke-linejoin="round"/>
<path d="M707.46 387.06H826.82C826.82 389.524 825.841 391.887 824.099 393.629C822.357 395.371 819.994 396.35 817.53 396.35H716.75C714.286 396.35 711.923 395.371 710.181 393.629C708.439 391.887 707.46 389.524 707.46 387.06V387.06Z" stroke="#9BAEBC" stroke-width="3" stroke-linecap="round" stroke-linejoin="round"/>
<path d="M597.09 197.5L597.04 229.75C596.962 232.066 595.972 234.257 594.287 235.847C592.601 237.437 590.356 238.297 588.04 238.24H575.82C573.5 238.297 571.252 237.434 569.566 235.84C567.88 234.245 566.893 232.049 566.82 229.73V197.48L597.09 197.5Z" stroke="#9BAEBC" stroke-width="3" stroke-linecap="round" stroke-linejoin="round"/>
<path d="M597.08 204C602.76 204 607.36 208.35 607.35 213.7V220.2C607.35 225.55 602.73 229.88 597.05 229.87" stroke="#9BAEBC" stroke-width="3" stroke-linecap="round" stroke-linejoin="round"/>
<path d="M709.88 197.5V229.75C709.802 232.075 708.805 234.273 707.109 235.865C705.413 237.456 703.155 238.31 700.83 238.24H688.6C686.279 238.299 684.03 237.437 682.344 235.842C680.657 234.248 679.67 232.05 679.6 229.73V197.48L709.88 197.5Z" stroke="#9BAEBC" stroke-width="3" stroke-linecap="round" stroke-linejoin="round"/>
<path d="M709.87 204C715.56 204 720.16 208.35 720.15 213.7V220.2C720.15 225.55 715.53 229.88 709.85 229.87" stroke="#9BAEBC" stroke-width="3" stroke-linecap="round" stroke-linejoin="round"/>
<path d="M653.79 197.5V229.75C653.712 232.066 652.722 234.257 651.037 235.847C649.351 237.437 647.106 238.297 644.79 238.24H632.57C630.25 238.297 628.002 237.434 626.316 235.84C624.63 234.245 623.643 232.049 623.57 229.73V197.48L653.79 197.5Z" fill="white"/>
<path d="M653.79 197.5V229.75C653.712 232.066 652.722 234.257 651.037 235.847C649.351 237.437 647.106 238.297 644.79 238.24H632.57C630.25 238.297 628.002 237.434 626.316 235.84C624.63 234.245 623.643 232.049 623.57 229.73V197.48L653.79 197.5Z" stroke="#9BAEBC" stroke-width="3" stroke-linecap="round" stroke-linejoin="round"/>
<path d="M653.78 204C659.46 204 664.06 208.35 664.05 213.7V220.2C664.05 225.55 659.43 229.88 653.75 229.87" stroke="#9BAEBC" stroke-width="3" stroke-linecap="round" stroke-linejoin="round"/>
<path d="M630.02 206.32C631.257 206.32 632.26 205.317 632.26 204.08C632.26 202.843 631.257 201.84 630.02 201.84C628.783 201.84 627.78 202.843 627.78 204.08C627.78 205.317 628.783 206.32 630.02 206.32Z" fill="#9BAEBC"/>
<path d="M647.16 206.32C648.397 206.32 649.4 205.317 649.4 204.08C649.4 202.843 648.397 201.84 647.16 201.84C645.923 201.84 644.92 202.843 644.92 204.08C644.92 205.317 645.923 206.32 647.16 206.32Z" fill="#9BAEBC"/>
<path d="M638.59 206.32C639.827 206.32 640.83 205.317 640.83 204.08C640.83 202.843 639.827 201.84 638.59 201.84C637.353 201.84 636.35 202.843 636.35 204.08C636.35 205.317 637.353 206.32 638.59 206.32Z" fill="#9BAEBC"/>
<path d="M625.08 213.2C626.317 213.2 627.32 212.197 627.32 210.96C627.32 209.723 626.317 208.72 625.08 208.72C623.843 208.72 622.84 209.723 622.84 210.96C622.84 212.197 623.843 213.2 625.08 213.2Z" fill="#9BAEBC"/>
<path d="M643.09 213.2C644.327 213.2 645.33 212.197 645.33 210.96C645.33 209.723 644.327 208.72 643.09 208.72C641.853 208.72 640.85 209.723 640.85 210.96C640.85 212.197 641.853 213.2 643.09 213.2Z" fill="#9BAEBC"/>
<path d="M652.1 213.2C653.337 213.2 654.34 212.197 654.34 210.96C654.34 209.723 653.337 208.72 652.1 208.72C650.863 208.72 649.86 209.723 649.86 210.96C649.86 212.197 650.863 213.2 652.1 213.2Z" fill="#9BAEBC"/>
<path d="M634.09 213.2C635.327 213.2 636.33 212.197 636.33 210.96C636.33 209.723 635.327 208.72 634.09 208.72C632.853 208.72 631.85 209.723 631.85 210.96C631.85 212.197 632.853 213.2 634.09 213.2Z" fill="#9BAEBC"/>
<path d="M630.02 220.09C631.257 220.09 632.26 219.087 632.26 217.85C632.26 216.613 631.257 215.61 630.02 215.61C628.783 215.61 627.78 216.613 627.78 217.85C627.78 219.087 628.783 220.09 630.02 220.09Z" fill="#9BAEBC"/>
<path d="M647.16 220.09C648.397 220.09 649.4 219.087 649.4 217.85C649.4 216.613 648.397 215.61 647.16 215.61C645.923 215.61 644.92 216.613 644.92 217.85C644.92 219.087 645.923 220.09 647.16 220.09Z" fill="#9BAEBC"/>
<path d="M638.59 220.09C639.827 220.09 640.83 219.087 640.83 217.85C640.83 216.613 639.827 215.61 638.59 215.61C637.353 215.61 636.35 216.613 636.35 217.85C636.35 219.087 637.353 220.09 638.59 220.09Z" fill="#9BAEBC"/>
<path d="M625.08 226.97C626.317 226.97 627.32 225.967 627.32 224.73C627.32 223.493 626.317 222.49 625.08 222.49C623.843 222.49 622.84 223.493 622.84 224.73C622.84 225.967 623.843 226.97 625.08 226.97Z" fill="#9BAEBC"/>
<path d="M643.09 226.97C644.327 226.97 645.33 225.967 645.33 224.73C645.33 223.493 644.327 222.49 643.09 222.49C641.853 222.49 640.85 223.493 640.85 224.73C640.85 225.967 641.853 226.97 643.09 226.97Z" fill="#9BAEBC"/>
<path d="M652.1 226.97C653.337 226.97 654.34 225.967 654.34 224.73C654.34 223.493 653.337 222.49 652.1 222.49C650.863 222.49 649.86 223.493 649.86 224.73C649.86 225.967 650.863 226.97 652.1 226.97Z" fill="#9BAEBC"/>
<path d="M634.09 226.97C635.327 226.97 636.33 225.967 636.33 224.73C636.33 223.493 635.327 222.49 634.09 222.49C632.853 222.49 631.85 223.493 631.85 224.73C631.85 225.967 632.853 226.97 634.09 226.97Z" fill="#9BAEBC"/>
<path d="M630.02 233.86C631.257 233.86 632.26 232.857 632.26 231.62C632.26 230.383 631.257 229.38 630.02 229.38C628.783 229.38 627.78 230.383 627.78 231.62C627.78 232.857 628.783 233.86 630.02 233.86Z" fill="#9BAEBC"/>
<path d="M647.16 233.86C648.397 233.86 649.4 232.857 649.4 231.62C649.4 230.383 648.397 229.38 647.16 229.38C645.923 229.38 644.92 230.383 644.92 231.62C644.92 232.857 645.923 233.86 647.16 233.86Z" fill="#9BAEBC"/>
<path d="M638.59 233.86C639.827 233.86 640.83 232.857 640.83 231.62C640.83 230.383 639.827 229.38 638.59 229.38C637.353 229.38 636.35 230.383 636.35 231.62C636.35 232.857 637.353 233.86 638.59 233.86Z" fill="#9BAEBC"/>
<path d="M1347.62 243.68H1081.62C1070.88 243.68 1062.18 252.384 1062.18 263.12V913.71C1062.18 924.446 1070.88 933.15 1081.62 933.15H1347.62C1358.36 933.15 1367.06 924.446 1367.06 913.71V263.12C1367.06 252.384 1358.36 243.68 1347.62 243.68Z" fill="white" stroke="#9BAEBC" stroke-width="3" stroke-linecap="round" stroke-linejoin="round"/>
<path d="M1347.33 423.91H1082.83" stroke="#9BAEBC" stroke-width="3" stroke-linecap="round" stroke-linejoin="round"/>
<path d="M1161.53 553.84L1102.41 555.84C1101.55 555.87 1100.7 555.726 1099.9 555.418C1099.1 555.11 1098.37 554.644 1097.75 554.048C1097.13 553.452 1096.64 552.737 1096.31 551.947C1095.97 551.157 1095.8 550.308 1095.8 549.45V549.45C1095.8 548.592 1095.97 547.744 1096.31 546.954C1096.64 546.165 1097.14 545.451 1097.75 544.855C1098.37 544.259 1099.1 543.793 1099.9 543.485C1100.7 543.176 1101.55 543.032 1102.41 543.06L1161.53 545.06C1162.66 545.101 1163.73 545.58 1164.52 546.395C1165.31 547.209 1165.75 548.297 1165.75 549.43V549.43C1165.76 550.57 1165.33 551.67 1164.54 552.494C1163.75 553.318 1162.67 553.801 1161.53 553.84V553.84Z" fill="#EBF4F7" stroke="#9BAEBC" stroke-width="3" stroke-linecap="round" stroke-linejoin="round"/>
<path d="M1165.75 295.04H1126.07V334.72H1165.75V295.04Z" stroke="#9BAEBC" stroke-width="3" stroke-linecap="round" stroke-linejoin="round"/>
<path d="M1161.94 298.48H1129.88V325.54H1161.94V298.48Z" fill="#EBF4F7"/>
<path d="M1253.81 295.04H1199.1V374.91H1253.81V295.04Z" fill="#EBF4F7"/>
<path d="M1211.87 313.44H1207.28V315.83H1211.87V313.44Z" fill="#9BAEBC"/>
<path d="M1245.61 313.44H1216.16V315.83H1245.61V313.44Z" fill="#9BAEBC"/>
<path d="M1211.87 320.51H1207.28V322.9H1211.87V320.51Z" fill="#9BAEBC"/>
<path d="M1245.61 320.51H1216.16V322.9H1245.61V320.51Z" fill="#9BAEBC"/>
<path d="M1211.87 327.59H1207.28V329.98H1211.87V327.59Z" fill="#9BAEBC"/>
<path d="M1245.61 327.59H1216.16V329.98H1245.61V327.59Z" fill="#9BAEBC"/>
<path d="M1211.87 334.66H1207.28V337.05H1211.87V334.66Z" fill="#9BAEBC"/>
<path d="M1245.61 334.66H1216.16V337.05H1245.61V334.66Z" fill="#9BAEBC"/>
<path d="M1211.87 348.81H1207.28V351.2H1211.87V348.81Z" fill="#9BAEBC"/>
<path d="M1245.61 348.81H1216.16V351.2H1245.61V348.81Z" fill="#9BAEBC"/>
<path d="M1211.87 341.73H1207.28V344.12H1211.87V341.73Z" fill="#9BAEBC"/>
<path d="M1245.61 341.73H1216.16V344.12H1245.61V341.73Z" fill="#9BAEBC"/>
<path d="M1227.56 292.17H1223.75V298.48H1227.56V292.17Z" fill="#9BAEBC"/>
<g style="mix-blend-mode:multiply">
<g style="mix-blend-mode:multiply">
<path d="M1256.3 195.27C1237.12 194.77 1243.96 168.63 1223.22 164.67C1206.22 170.15 1195.22 191.49 1193.99 193.91C1194.08 196.755 1194.33 199.593 1194.73 202.41L1193.73 202.57H1225.93V220.77C1225.93 234.49 1214.81 242.77 1201.1 242.77H1191.59C1177.88 242.77 1166.76 234.53 1166.76 220.77V202.53H1192.76C1192.01 196.742 1191.75 190.901 1191.99 185.07C1191.69 177.858 1190.28 170.735 1187.82 163.95C1186.02 159.022 1183.53 154.381 1180.4 150.17C1164.97 138.65 1131.1 153.17 1124.47 139.44C1117.2 124.39 1133.03 107.27 1155.61 114.53C1174.08 120.53 1181.54 143.3 1183.61 151.39C1186.07 155.124 1188.08 159.131 1189.61 163.33C1190.96 166.992 1191.99 170.763 1192.7 174.6C1192.8 173.75 1192.91 172.89 1193.04 172.01C1193.59 168.103 1194.34 164.228 1195.3 160.4C1190.39 117.4 1204.98 97.95 1211.59 91.59C1218.2 85.23 1228.97 81.06 1238.59 93.51C1248.21 105.96 1244.04 124.25 1215.59 144.36C1208.8 149.237 1202.62 154.914 1197.18 161.27C1196.18 165.16 1195.54 168.85 1195.06 172.21C1194.47 176.388 1194.11 180.594 1193.96 184.81C1194.06 187.33 1193.96 188.88 1193.96 189.05H1193.87C1193.87 189.33 1193.87 189.62 1193.87 189.89C1196.06 186.036 1198.54 182.359 1201.3 178.89C1207.64 171 1214.59 165.61 1221.66 163.05C1225.82 159.44 1240.55 149.05 1265.08 157.32C1294.43 167.27 1276.25 195.75 1256.3 195.27Z" fill="#E4F7FF"/>
</g>
</g>
<path d="M1189.84 159.95C1195.63 152.838 1202.36 146.541 1209.84 141.23C1238.28 121.12 1242.43 102.84 1232.84 90.39C1223.25 77.94 1212.6 81.98 1205.84 88.46C1199.08 94.94 1184 115.04 1189.84 159.95Z" fill="#AEA61F"/>
<path d="M1214.59 161.12C1214.59 161.12 1229.92 144.38 1259.24 154.24C1288.56 164.1 1270.41 192.62 1250.43 192.11C1230.45 191.6 1238.71 163.21 1214.59 161.12Z" fill="#AEA61F"/>
<path d="M1178.44 151.13C1178.44 151.13 1172.33 118.67 1149.75 111.4C1127.17 104.13 1111.35 121.27 1118.61 136.27C1125.87 151.27 1165.87 132.47 1178.44 151.13Z" fill="#AEA61F"/>
<path d="M1187.9 199.4C1187.9 199.4 1179.33 147.73 1216.18 111.4" stroke="#9F9300" stroke-width="3" stroke-linecap="round" stroke-linejoin="round"/>
<path d="M1187.13 190.55C1187.13 190.55 1213.85 134.24 1251.99 172.64" stroke="#9F9300" stroke-width="3" stroke-linecap="round" stroke-linejoin="round"/>
<path d="M1187.13 185.88C1187.13 185.88 1189.97 137.88 1144.82 127.23" stroke="#9F9300" stroke-width="3" stroke-linecap="round" stroke-linejoin="round"/>
<path d="M1160.93 199.4H1220.09V217.53C1220.09 220.805 1219.45 224.048 1218.19 227.074C1216.94 230.1 1215.1 232.849 1212.79 235.165C1210.47 237.481 1207.72 239.318 1204.69 240.572C1201.67 241.825 1198.43 242.47 1195.15 242.47H1185.87C1179.26 242.47 1172.91 239.842 1168.23 235.165C1163.56 230.488 1160.93 224.145 1160.93 217.53V199.4Z" fill="#66AFAD"/>
<path d="M79.99 833.4C79.99 833.4 82.45 665.81 160.65 566.47C160.65 566.47 120.32 622.95 107.36 833.4H79.99Z" fill="#948900"/>
<path d="M95.99 833.4C95.99 833.4 113.55 654.12 19.66 587.05C19.66 587.05 96.57 657.12 63.55 833.4H95.99Z" fill="#948900"/>
<path d="M85.73 830.89C85.73 830.89 85.14 670.89 0 632.83C0 632.83 85.14 694.73 57.69 830.89H85.73Z" fill="#948900"/>
<path d="M71.34 833.4C71.34 833.4 51.34 654.5 115.58 591.92C115.58 591.92 79.99 662.78 95.99 833.4H71.34Z" fill="#B0A81F"/>
<path d="M92.55 833.4C92.55 833.4 92.55 693.13 173.17 666.88C173.17 666.88 107.84 738.21 117.56 833.4H92.55Z" fill="#B0A81F"/>
<path d="M52.72 833.4C52.72 833.4 64.25 758.77 5.53998 725.32C5.53998 725.32 74.09 740.41 71.34 833.4H52.72Z" fill="#B0A81F"/>
<path d="M121.93 832.53H48.35C40.8941 832.53 34.85 838.574 34.85 846.03V919.61C34.85 927.066 40.8941 933.11 48.35 933.11H121.93C129.386 933.11 135.43 927.066 135.43 919.61V846.03C135.43 838.574 129.386 832.53 121.93 832.53Z" fill="#876E7D" stroke="#745D6A" stroke-width="3" stroke-linecap="round" stroke-linejoin="round"/>
<path d="M813.38 2H513.03C511.257 2 509.82 3.43717 509.82 5.21001V6.40001C509.82 8.17284 511.257 9.61 513.03 9.61H813.38C815.153 9.61 816.59 8.17284 816.59 6.40001V5.21001C816.59 3.43717 815.153 2 813.38 2Z" stroke="#9BAEBC" stroke-width="3" stroke-linecap="round" stroke-linejoin="round"/>
<path d="M546.03 9.64001V23.66" stroke="#9BAEBC" stroke-width="3" stroke-linecap="round" stroke-linejoin="round"/>
<path d="M546.03 63.89C555.911 63.89 563.92 55.8804 563.92 46C563.92 36.1196 555.911 28.11 546.03 28.11C536.15 28.11 528.14 36.1196 528.14 46C528.14 55.8804 536.15 63.89 546.03 63.89Z" fill="white"/>
<path d="M525.72 33.27C528.105 30.1478 531.177 27.6176 534.699 25.876C538.22 24.1344 542.096 23.2284 546.025 23.2284C549.954 23.2284 553.83 24.1344 557.351 25.876C560.873 27.6176 563.945 30.1478 566.33 33.27" stroke="#9BAEBC" stroke-width="3" stroke-linecap="round" stroke-linejoin="round"/>
<path d="M662.88 9.43005V23.44" stroke="#9BAEBC" stroke-width="3" stroke-linecap="round" stroke-linejoin="round"/>
<path d="M662.88 63.68C672.76 63.68 680.77 55.6704 680.77 45.79C680.77 35.9096 672.76 27.9 662.88 27.9C653 27.9 644.99 35.9096 644.99 45.79C644.99 55.6704 653 63.68 662.88 63.68Z" fill="white"/>
<path d="M642.57 33.04C644.955 29.9178 648.027 27.3875 651.549 25.6459C655.071 23.9044 658.946 22.9984 662.875 22.9984C666.804 22.9984 670.68 23.9044 674.201 25.6459C677.723 27.3875 680.795 29.9178 683.18 33.04" stroke="#9BAEBC" stroke-width="3" stroke-linecap="round" stroke-linejoin="round"/>
<path d="M780.31 9.43005V23.44" stroke="#9BAEBC" stroke-width="3" stroke-linecap="round" stroke-linejoin="round"/>
<path d="M780.31 63.68C790.19 63.68 798.2 55.6704 798.2 45.79C798.2 35.9096 790.19 27.9 780.31 27.9C770.43 27.9 762.42 35.9096 762.42 45.79C762.42 55.6704 770.43 63.68 780.31 63.68Z" fill="white"/>
<path d="M760 33.04C762.385 29.9178 765.457 27.3875 768.979 25.6459C772.5 23.9044 776.376 22.9984 780.305 22.9984C784.234 22.9984 788.11 23.9044 791.631 25.6459C795.153 27.3875 798.225 29.9178 800.61 33.04" stroke="#9BAEBC" stroke-width="3" stroke-linecap="round" stroke-linejoin="round"/>
<path d="M745.432 476.984C753.314 476.984 759.704 470.594 759.704 462.712C759.704 454.83 753.314 448.44 745.432 448.44C737.55 448.44 731.16 454.83 731.16 462.712C731.16 470.594 737.55 476.984 745.432 476.984Z" fill="#41465A"/>
<path d="M703.032 472.184C710.914 472.184 717.304 465.794 717.304 457.912C717.304 450.03 710.914 443.64 703.032 443.64C695.15 443.64 688.76 450.03 688.76 457.912C688.76 465.794 695.15 472.184 703.032 472.184Z" fill="#41465A"/>
<path d="M684.28 728.632L657.584 978.096C657.541 978.486 657.581 978.881 657.701 979.254C657.821 979.628 658.019 979.972 658.281 980.264C658.543 980.556 658.863 980.79 659.221 980.95C659.58 981.109 659.968 981.192 660.36 981.192V981.192C661.009 981.191 661.637 980.965 662.138 980.552C662.638 980.139 662.98 979.565 663.104 978.928L706.504 728.632H684.28Z" fill="white" stroke="#6E8494" stroke-width="2.4" stroke-miterlimit="10"/>
<path d="M786.648 728.632L813.344 973.288C813.388 973.676 813.349 974.07 813.232 974.442C813.114 974.815 812.92 975.159 812.662 975.452C812.403 975.745 812.086 975.981 811.731 976.144C811.376 976.308 810.991 976.395 810.6 976.4V976.4C809.95 976.401 809.32 976.175 808.817 975.762C808.315 975.349 807.973 974.774 807.848 974.136L764.424 728.632H786.648Z" fill="white" stroke="#6E8494" stroke-width="2.4" stroke-miterlimit="10"/>
<path d="M799.688 713.312H669.12C665.555 713.312 662.664 716.202 662.664 719.768V722.168C662.664 725.734 665.555 728.624 669.12 728.624H799.688C803.254 728.624 806.144 725.734 806.144 722.168V719.768C806.144 716.202 803.254 713.312 799.688 713.312Z" fill="white" stroke="#6E8494" stroke-width="2.4" stroke-miterlimit="10"/>
<path d="M813.712 709.032C812.912 714.512 777.384 711.552 700.352 712.464C700.205 712.495 700.055 712.511 699.904 712.512C685.504 712.512 673.864 690.656 673.504 633.784C673.144 576.912 694 573.928 701.288 574.24C722.808 575.136 724.32 606.24 724.32 634.24C724.314 647.444 722.752 660.602 719.664 673.44C734.368 679.04 736.464 671.368 762.112 677.44C789.896 684.072 814.328 704.672 813.712 709.032Z" fill="#463840"/>
<path d="M846.344 703.528C849.376 704.928 854.048 703.304 856.744 703.264C863.144 703.16 864.448 706.8 864.448 706.8L849.32 740.504C849.32 740.504 843.568 738.856 844.696 728.872C845.872 718.472 846.384 713.96 840.696 712.264C835.008 710.568 841.336 701.2 846.344 703.528Z" fill="#876E7D"/>
<path d="M840.664 712.12C824.408 713 791.304 711.84 739.304 712.464C739.154 712.496 739.001 712.512 738.848 712.512C715.728 712.512 712.808 690.656 712.448 633.784C712.088 576.912 732.936 573.928 740.224 574.24C761.744 575.136 763.256 606.24 763.256 634.24C763.25 647.996 761.552 661.699 758.2 675.04C770.864 678.888 775.416 671.368 801.056 677.44C828.824 684.024 844.936 699.232 846.872 705.136C847.456 706.896 848.488 711.704 840.664 712.12Z" fill="#FFB3A4"/>
<path d="M763.272 634.272C763.267 645.91 762.052 657.517 759.648 668.904C744.272 670.291 728.805 670.369 713.416 669.136C712.784 659.288 712.552 647.536 712.464 633.784C712.112 576.912 732.952 573.936 740.24 574.24C761.8 575.136 763.272 606.248 763.272 634.272Z" fill="#463840"/>
<path d="M661.712 543.928C682.896 529.104 706.216 504.728 708.384 495.24C711.008 483.752 703.776 470.784 694.952 478.288C682.08 489.24 662.08 508.928 653.032 520.584C639.768 507.536 611.152 481.288 602.432 486.744C598.736 489.056 638.432 538.392 645.952 544.736C650.288 548.4 657.872 546.608 661.712 543.928Z" fill="#FFB3A4"/>
<path d="M617.035 517.878L565.681 559.361L571.678 566.785L623.033 525.303L617.035 517.878Z" fill="#EBF4F7" stroke="#6E8494" stroke-width="2.4" stroke-miterlimit="10"/>
<path d="M623.032 525.304L619.64 528.048C618.642 528.684 617.444 528.929 616.277 528.736C615.109 528.543 614.054 527.926 613.314 527.002C612.574 526.078 612.201 524.914 612.267 523.732C612.333 522.551 612.834 521.435 613.672 520.6L617.064 517.856L623.032 525.304Z" fill="#6E8494"/>
<path d="M542.856 531.24L565.68 559.36L617.032 517.88L594.208 489.76L542.856 531.24Z" fill="white" stroke="#6E8494" stroke-width="2.4" stroke-miterlimit="10"/>
<path d="M617.36 527.088C617.917 527.088 618.368 526.637 618.368 526.08C618.368 525.523 617.917 525.072 617.36 525.072C616.803 525.072 616.352 525.523 616.352 526.08C616.352 526.637 616.803 527.088 617.36 527.088Z" fill="#FFE6AA"/>
<path d="M624.04 532.592C624.597 532.592 625.048 532.141 625.048 531.584C625.048 531.027 624.597 530.576 624.04 530.576C623.483 530.576 623.032 531.027 623.032 531.584C623.032 532.141 623.483 532.592 624.04 532.592Z" fill="#FFE6AA"/>
<path d="M628.272 546.192C628.829 546.192 629.28 545.741 629.28 545.184C629.28 544.627 628.829 544.176 628.272 544.176C627.715 544.176 627.264 544.627 627.264 545.184C627.264 545.741 627.715 546.192 628.272 546.192Z" fill="#FFE6AA"/>
<path d="M623.232 549.728C623.789 549.728 624.24 549.277 624.24 548.72C624.24 548.163 623.789 547.712 623.232 547.712C622.675 547.712 622.224 548.163 622.224 548.72C622.224 549.277 622.675 549.728 623.232 549.728Z" fill="#FFE6AA"/>
<path d="M629.28 557.76C629.837 557.76 630.288 557.309 630.288 556.752C630.288 556.195 629.837 555.744 629.28 555.744C628.723 555.744 628.272 556.195 628.272 556.752C628.272 557.309 628.723 557.76 629.28 557.76Z" fill="#FFE6AA"/>
<path d="M631.84 553.272C632.397 553.272 632.848 552.821 632.848 552.264C632.848 551.707 632.397 551.256 631.84 551.256C631.283 551.256 630.832 551.707 630.832 552.264C630.832 552.821 631.283 553.272 631.84 553.272Z" fill="#FFE6AA"/>
<path d="M621.208 542.392C621.765 542.392 622.216 541.941 622.216 541.384C622.216 540.827 621.765 540.376 621.208 540.376C620.651 540.376 620.2 540.827 620.2 541.384C620.2 541.941 620.651 542.392 621.208 542.392Z" fill="#FFE6AA"/>
<path d="M620.2 534.616C620.757 534.616 621.208 534.165 621.208 533.608C621.208 533.051 620.757 532.6 620.2 532.6C619.643 532.6 619.192 533.051 619.192 533.608C619.192 534.165 619.643 534.616 620.2 534.616Z" fill="#FFE6AA"/>
<path d="M623.752 535.552C624.15 535.552 624.472 535.23 624.472 534.832C624.472 534.434 624.15 534.112 623.752 534.112C623.354 534.112 623.032 534.434 623.032 534.832C623.032 535.23 623.354 535.552 623.752 535.552Z" fill="#FFE6AA"/>
<path d="M621.688 531.296C622.086 531.296 622.408 530.974 622.408 530.576C622.408 530.178 622.086 529.856 621.688 529.856C621.29 529.856 620.968 530.178 620.968 530.576C620.968 530.974 621.29 531.296 621.688 531.296Z" fill="#FFE6AA"/>
<path d="M626.224 539.456C626.622 539.456 626.944 539.134 626.944 538.736C626.944 538.338 626.622 538.016 626.224 538.016C625.827 538.016 625.504 538.338 625.504 538.736C625.504 539.134 625.827 539.456 626.224 539.456Z" fill="#FFE6AA"/>
<path d="M627.456 552.608C627.854 552.608 628.176 552.286 628.176 551.888C628.176 551.49 627.854 551.168 627.456 551.168C627.058 551.168 626.736 551.49 626.736 551.888C626.736 552.286 627.058 552.608 627.456 552.608Z" fill="#FFE6AA"/>
<path d="M635.128 565.112C635.526 565.112 635.848 564.79 635.848 564.392C635.848 563.994 635.526 563.672 635.128 563.672C634.73 563.672 634.408 563.994 634.408 564.392C634.408 564.79 634.73 565.112 635.128 565.112Z" fill="#FFE6AA"/>
<path d="M628.272 561.096C628.67 561.096 628.992 560.774 628.992 560.376C628.992 559.978 628.67 559.656 628.272 559.656C627.874 559.656 627.552 559.978 627.552 560.376C627.552 560.774 627.874 561.096 628.272 561.096Z" fill="#FFE6AA"/>
<path d="M633.68 558.2C634.078 558.2 634.4 557.878 634.4 557.48C634.4 557.082 634.078 556.76 633.68 556.76C633.282 556.76 632.96 557.082 632.96 557.48C632.96 557.878 633.282 558.2 633.68 558.2Z" fill="#FFE6AA"/>
<path d="M624.472 561.096C624.87 561.096 625.192 560.774 625.192 560.376C625.192 559.978 624.87 559.656 624.472 559.656C624.074 559.656 623.752 559.978 623.752 560.376C623.752 560.774 624.074 561.096 624.472 561.096Z" fill="#FFE6AA"/>
<path d="M624.472 543.776C624.87 543.776 625.192 543.454 625.192 543.056C625.192 542.658 624.87 542.336 624.472 542.336C624.074 542.336 623.752 542.658 623.752 543.056C623.752 543.454 624.074 543.776 624.472 543.776Z" fill="#FFE6AA"/>
<path d="M632.56 547.224C632.958 547.224 633.28 546.902 633.28 546.504C633.28 546.106 632.958 545.784 632.56 545.784C632.162 545.784 631.84 546.106 631.84 546.504C631.84 546.902 632.162 547.224 632.56 547.224Z" fill="#FFE6AA"/>
<path d="M621.688 552.264C622.086 552.264 622.408 551.942 622.408 551.544C622.408 551.146 622.086 550.824 621.688 550.824C621.29 550.824 620.968 551.146 620.968 551.544C620.968 551.942 621.29 552.264 621.688 552.264Z" fill="#FFE6AA"/>
<path d="M618.376 523.976C618.641 523.976 618.856 523.761 618.856 523.496C618.856 523.231 618.641 523.016 618.376 523.016C618.111 523.016 617.896 523.231 617.896 523.496C617.896 523.761 618.111 523.976 618.376 523.976Z" fill="#FFE6AA"/>
<path d="M621.208 538.488C621.473 538.488 621.688 538.273 621.688 538.008C621.688 537.743 621.473 537.528 621.208 537.528C620.943 537.528 620.728 537.743 620.728 538.008C620.728 538.273 620.943 538.488 621.208 538.488Z" fill="#FFE6AA"/>
<path d="M621.208 538.488C621.473 538.488 621.688 538.273 621.688 538.008C621.688 537.743 621.473 537.528 621.208 537.528C620.943 537.528 620.728 537.743 620.728 538.008C620.728 538.273 620.943 538.488 621.208 538.488Z" fill="#FFE6AA"/>
<path d="M623.032 545.664C623.297 545.664 623.512 545.449 623.512 545.184C623.512 544.919 623.297 544.704 623.032 544.704C622.767 544.704 622.552 544.919 622.552 545.184C622.552 545.449 622.767 545.664 623.032 545.664Z" fill="#FFE6AA"/>
<path d="M627.936 540.848C628.201 540.848 628.416 540.633 628.416 540.368C628.416 540.103 628.201 539.888 627.936 539.888C627.671 539.888 627.456 540.103 627.456 540.368C627.456 540.633 627.671 540.848 627.936 540.848Z" fill="#FFE6AA"/>
<path d="M630.712 543.536C630.977 543.536 631.192 543.321 631.192 543.056C631.192 542.791 630.977 542.576 630.712 542.576C630.447 542.576 630.232 542.791 630.232 543.056C630.232 543.321 630.447 543.536 630.712 543.536Z" fill="#FFE6AA"/>
<path d="M626.944 557.232C627.209 557.232 627.424 557.017 627.424 556.752C627.424 556.487 627.209 556.272 626.944 556.272C626.679 556.272 626.464 556.487 626.464 556.752C626.464 557.017 626.679 557.232 626.944 557.232Z" fill="#FFE6AA"/>
<path d="M623.232 555.584C623.497 555.584 623.712 555.369 623.712 555.104C623.712 554.839 623.497 554.624 623.232 554.624C622.967 554.624 622.752 554.839 622.752 555.104C622.752 555.369 622.967 555.584 623.232 555.584Z" fill="#FFE6AA"/>
<path d="M632.32 559.656C632.585 559.656 632.8 559.441 632.8 559.176C632.8 558.911 632.585 558.696 632.32 558.696C632.055 558.696 631.84 558.911 631.84 559.176C631.84 559.441 632.055 559.656 632.32 559.656Z" fill="#FFE6AA"/>
<path d="M630.832 563.192C631.097 563.192 631.312 562.977 631.312 562.712C631.312 562.447 631.097 562.232 630.832 562.232C630.567 562.232 630.352 562.447 630.352 562.712C630.352 562.977 630.567 563.192 630.832 563.192Z" fill="#FFE6AA"/>
<path d="M634.16 555.584C634.425 555.584 634.64 555.369 634.64 555.104C634.64 554.839 634.425 554.624 634.16 554.624C633.895 554.624 633.68 554.839 633.68 555.104C633.68 555.369 633.895 555.584 634.16 555.584Z" fill="#FFE6AA"/>
<path d="M622.216 558.68C622.481 558.68 622.696 558.465 622.696 558.2C622.696 557.935 622.481 557.72 622.216 557.72C621.951 557.72 621.736 557.935 621.736 558.2C621.736 558.465 621.951 558.68 622.216 558.68Z" fill="#FFE6AA"/>
<path d="M626.944 563.672C627.209 563.672 627.424 563.457 627.424 563.192C627.424 562.927 627.209 562.712 626.944 562.712C626.679 562.712 626.464 562.927 626.464 563.192C626.464 563.457 626.679 563.672 626.944 563.672Z" fill="#FFE6AA"/>
<path d="M630.224 548.4C630.489 548.4 630.704 548.185 630.704 547.92C630.704 547.655 630.489 547.44 630.224 547.44C629.959 547.44 629.744 547.655 629.744 547.92C629.744 548.185 629.959 548.4 630.224 548.4Z" fill="#FFE6AA"/>
<path d="M625.744 555.584C626.009 555.584 626.224 555.369 626.224 555.104C626.224 554.839 626.009 554.624 625.744 554.624C625.479 554.624 625.264 554.839 625.264 555.104C625.264 555.369 625.479 555.584 625.744 555.584Z" fill="#FFE6AA"/>
<path d="M625.744 550.216C626.009 550.216 626.224 550.001 626.224 549.736C626.224 549.471 626.009 549.256 625.744 549.256C625.479 549.256 625.264 549.471 625.264 549.736C625.264 550.001 625.479 550.216 625.744 550.216Z" fill="#FFE6AA"/>
<path d="M604.312 500.184C605.544 500.264 609.816 498.352 610.56 494.656C611.6 489.472 615.944 490.272 611.056 487.504C606.544 484.952 593.712 484.896 590.808 485.808C587.904 486.72 584.056 490.296 583.704 491C583.352 491.704 581.12 496.944 581.12 496.944C581.12 496.944 585.968 500.424 588.816 497.744C589.987 496.626 591.387 495.775 592.919 495.251C594.45 494.726 596.077 494.539 597.688 494.704C599.215 494.89 600.614 495.651 601.6 496.832L604.312 500.184Z" fill="#FFB3A4"/>
<path d="M737.864 474.152C744.144 475.968 751.776 479.12 756.888 516.136C762 553.152 787.288 654.608 787.728 657.16C788.168 659.712 686.664 667.032 653.48 645.336C653.48 645.336 683.344 500.664 693.576 481.024C696.264 475.864 704.728 473.696 712.456 473.064C720.184 472.432 728.424 471.416 737.864 474.152Z" fill="#876E7D"/>
<path d="M731.032 456.288C731.032 456.288 728.792 465.792 737.864 474.152C737.864 474.152 716.688 484.72 702.664 475.032C702.664 475.032 710.28 466.6 709.456 456.288H731.032Z" fill="#FFB3A4"/>
<path d="M732.392 466.608C725.992 471.288 715.84 476.16 705.368 471.288C707.464 467.864 709.944 462.408 709.456 456.288H731.056C730.464 459.784 730.93 463.378 732.392 466.608V466.608Z" fill="#463840"/>
<path d="M741 457.264C741 457.264 718.488 479.392 702.6 461.744C689.08 446.696 708.672 411.344 728.824 420.144C745.504 427.392 741 457.264 741 457.264Z" fill="#FFB3A4"/>
<path d="M723.784 422.36C723.784 422.36 724.016 442.592 741.112 449.872L740.544 460.824C740.544 460.824 756.928 460.592 758.848 447.224C761.832 426.472 751.96 413.416 738.592 410.712C725.224 408.008 702.496 408.312 699.712 423.656C699.112 426.96 700.136 438.264 700.136 438.264C700.136 438.264 706.6 418.736 723.784 422.36Z" fill="#41465A"/>
<path d="M723.784 421.4C723.784 421.4 716.84 441.152 734.864 448.4" stroke="#41465A" stroke-width="2.4" stroke-miterlimit="10"/>
<path d="M740.088 457.656C740.088 457.656 748.752 456.856 747.92 452.856C747.088 448.856 740.664 449.896 740.664 449.896L740.088 457.656Z" fill="#FFB3A4"/>
<path opacity="0.85" d="M684.504 577.2C683.4 583.44 681.078 589.402 677.67 594.745C674.261 600.087 669.834 604.706 664.64 608.337C659.447 611.969 653.589 614.541 647.401 615.908C641.213 617.275 634.816 617.41 628.576 616.304V616.304C615.979 614.072 604.784 606.93 597.451 596.447C590.118 585.964 587.248 572.998 589.472 560.4L684.504 577.2Z" fill="white"/>
<path d="M684.504 577.2C683.4 583.44 681.078 589.402 677.67 594.745C674.261 600.087 669.834 604.706 664.64 608.337C659.447 611.969 653.589 614.541 647.401 615.908C641.213 617.275 634.816 617.41 628.576 616.304V616.304C615.979 614.072 604.784 606.93 597.451 596.447C590.118 585.964 587.248 572.998 589.472 560.4L684.504 577.2Z" stroke="#6E8494" stroke-width="2.4" stroke-miterlimit="10"/>
<path d="M661.048 606.384C652.982 612.023 643.209 614.689 633.397 613.927C623.584 613.166 614.34 609.024 607.24 602.208C609.152 599.808 622.128 608.872 635.096 601.944C658.08 589.68 660.808 604.584 661.048 606.384Z" fill="#EBF4F7"/>
<path d="M748.568 492.688C750.304 481.032 736.568 477.96 729.096 488.464C722.136 498.272 708.064 542.56 708.064 542.56C702.648 545.408 645.56 583.56 647.472 589.664C648.536 593.064 692.216 578.464 719.032 562.576C724.328 559.176 744.032 523.008 748.568 492.688Z" fill="#FFB3A4"/>
<path d="M653.8 590C651.592 590.992 637.664 596.848 634.6 596.704C631.536 596.56 625.528 592.416 625 591.816C624.472 591.216 622.304 587.864 622.304 587.864C622.304 587.864 624.64 585.464 626.776 587.864C629.312 590.72 633.848 590.024 636.24 589.064C637.24 588.664 638.76 587.184 637.992 585.92C637.224 584.656 633.336 586.072 632.136 585.8C631.57 585.628 631.054 585.319 630.635 584.901C630.217 584.482 629.908 583.967 629.736 583.4L637.056 581C638.232 580.616 646.656 580.96 651.504 583.128C656.352 585.296 658.952 587.68 653.8 590Z" fill="#FFB3A4"/>
<path d="M398.6 955.192C398.6 963.32 392.336 966.288 392.344 980.712H456.344C456.344 980.712 457.488 965.832 441.224 965.376C427.272 964.984 416.728 956.448 416.88 955.192C417.032 953.936 398.6 955.192 398.6 955.192Z" fill="#2B303F"/>
<path d="M391.856 979.232H456.768V980.656C456.768 981.18 456.56 981.683 456.189 982.053C455.819 982.424 455.316 982.632 454.792 982.632H393.8C393.276 982.632 392.773 982.424 392.403 982.053C392.032 981.683 391.824 981.18 391.824 980.656V979.232H391.856Z" fill="#6DB1BA"/>
<path d="M421.36 969.2C421.294 969.208 421.226 969.208 421.16 969.2C421.036 969.175 420.918 969.126 420.814 969.055C420.709 968.985 420.619 968.894 420.55 968.788C420.481 968.682 420.433 968.564 420.41 968.439C420.387 968.315 420.389 968.187 420.416 968.064C420.464 967.824 421.656 962.248 425.296 960.608C427 959.808 428.888 960.04 430.896 961.208C431.005 961.271 431.101 961.355 431.178 961.455C431.255 961.555 431.311 961.669 431.344 961.791C431.376 961.913 431.385 962.04 431.368 962.165C431.352 962.29 431.311 962.411 431.248 962.52C431.185 962.629 431.101 962.725 431.001 962.802C430.901 962.879 430.787 962.935 430.665 962.968C430.543 963 430.416 963.009 430.291 962.992C430.166 962.976 430.045 962.935 429.936 962.872C428.448 962.024 427.176 961.856 426.056 962.36C423.768 963.392 422.544 967.112 422.264 968.456C422.217 968.662 422.102 968.847 421.939 968.982C421.775 969.116 421.572 969.193 421.36 969.2V969.2Z" fill="#6DB1BA"/>
<path d="M429.528 969.696C429.449 969.708 429.368 969.708 429.288 969.696C429.165 969.664 429.05 969.609 428.949 969.532C428.848 969.456 428.763 969.36 428.699 969.251C428.635 969.142 428.594 969.021 428.577 968.895C428.56 968.77 428.568 968.642 428.6 968.52C428.648 968.352 429.744 964.256 432.976 962.752C434.768 961.952 436.808 962.048 439.04 963.12C439.247 963.24 439.401 963.433 439.473 963.661C439.545 963.888 439.53 964.135 439.43 964.352C439.33 964.569 439.152 964.741 438.932 964.834C438.712 964.927 438.466 964.935 438.24 964.856C436.552 964.056 435.04 963.928 433.824 964.496C431.424 965.624 430.504 968.976 430.496 969.008C430.433 969.213 430.304 969.392 430.129 969.516C429.954 969.641 429.743 969.704 429.528 969.696Z" fill="#6DB1BA"/>
<path d="M429.584 952.176C424.86 953.933 419.942 955.115 414.936 955.696C406.424 956.792 390.84 954.576 390.84 954.576C374.464 928.864 357.456 855.056 360.216 794.368C361.816 760.088 381.624 745.096 368.864 714.784C357.6 689.792 318.04 621.112 311.536 564.592C309.136 544.048 312.472 529.008 318.688 518.304C322.792 518.896 326.864 519.432 330.864 519.904C358.112 523.312 382.296 524.784 393.688 524.64C406.96 550.088 421.536 596.688 431.648 688.88L434.352 728.6C435.664 748.4 429.512 846.936 429.584 952.176Z" fill="#556C79"/>
<path d="M251.784 955.192C251.784 963.32 245.52 966.288 245.52 980.712H310.024C310.024 980.712 311.168 965.832 294.904 965.376C280.952 964.984 271.352 956.448 271.504 955.192C271.656 953.936 251.784 955.192 251.784 955.192Z" fill="#2B303F"/>
<path d="M245.52 979.232H310.432V980.656C310.432 981.18 310.224 981.683 309.853 982.053C309.483 982.424 308.98 982.632 308.456 982.632H247.504C246.98 982.632 246.477 982.424 246.107 982.053C245.736 981.683 245.528 981.18 245.528 980.656V979.232H245.52Z" fill="#6DB1BA"/>
<path d="M275.664 969.696H275.472C275.348 969.671 275.23 969.622 275.125 969.551C275.021 969.481 274.931 969.39 274.862 969.284C274.793 969.178 274.745 969.06 274.722 968.935C274.699 968.811 274.701 968.683 274.728 968.56C274.776 968.328 275.968 962.744 279.608 961.104C281.312 960.304 283.2 960.536 285.208 961.704C285.317 961.767 285.413 961.851 285.49 961.951C285.567 962.051 285.623 962.165 285.656 962.287C285.688 962.409 285.697 962.536 285.68 962.661C285.664 962.786 285.623 962.907 285.56 963.016C285.497 963.125 285.413 963.221 285.313 963.298C285.213 963.375 285.099 963.431 284.977 963.464C284.855 963.496 284.728 963.505 284.603 963.488C284.478 963.472 284.357 963.431 284.248 963.368C282.76 962.52 281.488 962.352 280.368 962.856C278.08 963.888 276.856 967.608 276.576 968.952C276.527 969.159 276.411 969.344 276.246 969.478C276.081 969.613 275.877 969.689 275.664 969.696Z" fill="#6DB1BA"/>
<path d="M283.84 970.176C283.76 970.188 283.679 970.188 283.6 970.176C283.477 970.144 283.362 970.089 283.261 970.012C283.16 969.936 283.075 969.841 283.011 969.731C282.947 969.622 282.906 969.501 282.888 969.375C282.871 969.25 282.879 969.122 282.912 969C282.952 968.832 284.056 964.736 287.288 963.24C289.08 962.44 291.12 962.528 293.352 963.6C293.559 963.72 293.713 963.913 293.785 964.141C293.857 964.368 293.842 964.615 293.742 964.832C293.642 965.049 293.464 965.221 293.244 965.314C293.024 965.407 292.777 965.415 292.552 965.336C290.864 964.536 289.352 964.408 288.136 964.984C285.736 966.104 284.816 969.456 284.8 969.488C284.739 969.693 284.612 969.872 284.438 969.997C284.264 970.122 284.054 970.185 283.84 970.176V970.176Z" fill="#6DB1BA"/>
<path d="M337.624 700.608C337.192 704.68 335.104 718.616 333.536 727.808C329.608 750.896 278.44 945.528 277.296 955.224C277.296 955.224 272.656 956.664 263.6 956.936C256.73 957.014 249.86 956.747 243.016 956.136C232.976 927.984 224.424 853.736 238.016 797.736C245.304 767.68 265.96 749.336 266.984 723.032C262.184 696.792 239.112 615.16 245.6 557.76C248.312 533.808 256.76 518.16 267.2 508.512C287.296 513.552 309.992 517.312 330.888 519.912C340.632 545.568 349 594.8 337.624 700.608Z" fill="#556C79"/>
<path d="M501.8 491.52C428.808 434.8 421 372.504 419.576 356.784C417.536 333.856 429.408 315.648 460.488 334.68C487.256 351.056 514.664 409.928 531.536 439.992C565.136 409.512 613.016 382.232 618.128 378.824C630.128 370.824 632.712 378.584 626.408 386.88C619.136 396.48 568.976 481.368 544.264 496.056C535.136 501.48 518.008 504.088 501.8 491.52Z" fill="#FFB3A4"/>
<path d="M514.6 408.528C499.824 433.568 472.344 447.552 461.304 452.376C426.72 409.048 420.616 368.376 419.584 356.784C417.544 333.856 429.416 315.656 460.496 334.672C479.544 346.336 498.92 379.52 514.6 408.528Z" fill="#3A193F"/>
<path d="M637.648 357.32C636.848 359.864 633.456 363.496 636.256 363.872C637.704 364.064 648.392 363.872 649.112 367.912C649.391 369.815 649.012 371.757 648.04 373.416C648.581 374.391 648.834 375.499 648.77 376.612C648.706 377.725 648.328 378.797 647.68 379.704C648.752 382.032 648.72 384.84 647.584 385.912C647.584 385.912 649.184 391.84 646.704 392.8C638.96 395.792 625.592 394.28 621.104 393C617.208 391.888 614.048 388.112 614.048 379.68C614.048 376.224 618.696 367.864 621.8 364.552C623.072 363.2 627.784 357.752 629.328 356.296C631.526 354.154 633.192 351.526 634.192 348.624C634.192 348.624 639.84 350.208 637.648 357.32Z" fill="#FFB3A4"/>
<path d="M646.464 366.96C646.464 368.744 635.744 367.568 633.824 367.704C631.112 367.896 630.624 373.552 634.128 373.496C638.794 373.956 643.494 373.956 648.16 373.496" stroke="#E2564B" stroke-width="2.4" stroke-linecap="round" stroke-linejoin="round"/>
<path d="M647.592 379.704C635.984 380.352 633 379.704 633 379.704C631.312 379.792 630.032 373.672 634.128 373.496" stroke="#E2564B" stroke-width="2.4" stroke-linecap="round" stroke-linejoin="round"/>
<path d="M647.032 385.912C636.072 386.712 632.44 385.912 632.44 385.912C630.84 385.872 629.736 379.624 633 379.704" stroke="#E2564B" stroke-width="2.4" stroke-linecap="round" stroke-linejoin="round"/>
<path d="M635.4 386.264C635.4 386.264 631.648 385.36 631.4 387.736C630.896 391.952 632.864 392.696 642.728 392.32" stroke="#E2564B" stroke-width="2.4" stroke-linecap="round" stroke-linejoin="round"/>
<path d="M454.552 446.456C454.552 446.456 511.136 418 516.68 399.408C516.68 399.408 484.744 345.184 454.592 329.76C424.44 314.336 384.68 341.392 454.552 446.456Z" fill="#039590"/>
<path d="M301.992 545.2C250.104 532.088 239.296 525.088 264.064 490.176C283.832 462.312 287.16 356.712 313.8 322.656C339.92 289.248 377.176 296.256 389.928 297.808C389.928 297.808 411.624 297.096 452.528 327.248C504.688 365.704 474.976 410.544 467.768 425.44C463.368 434.536 445.144 464.232 399.664 515.672C393 523.2 399.496 538.672 400.616 541.72C401.736 544.768 358.904 559.6 301.992 545.2Z" fill="#039590"/>
<path d="M417.6 261.456C417.6 261.456 411.696 283.544 388.696 298.064C388.696 298.064 409.336 321.76 448.024 324.048C448.024 324.048 431.224 308.528 454.128 277.856L417.6 261.456Z" fill="#FFB3A4"/>
<path d="M418.4 261.808C417.808 263.152 417.328 264.28 417.008 265.104C417.008 265.104 413.008 278.608 417.416 289.408C420.824 297.8 434.144 310.52 441.336 310.016C441.448 302.64 445.016 290.016 454.136 277.856L418.4 261.808Z" fill="#3A193F"/>
<path d="M416.768 264.472C416.768 264.472 419.52 278.64 422.6 283.6C427.984 292.272 441.696 300.608 447.4 300.064C451.32 299.688 456.552 299.656 465 282.8C467.4 278 478.144 247.184 476.824 245.368C475.504 243.552 439.4 225.2 435.768 228.456C432.136 231.712 419.304 258.04 416.768 264.472Z" fill="#FFB3A4"/>
<path d="M420.912 255.312C420.912 255.312 428.112 258.92 431.384 245.712C434.312 233.944 437.64 232.68 450.008 242.8C460.072 251.04 481.816 260.576 489.832 250.544C497.176 241.344 490.944 233.944 483.6 234.64C474.656 235.48 472.232 215.552 452.84 212C437.352 209.136 431.4 221.296 431.4 221.296C431.4 221.296 423.744 215.696 417.92 224.208C410.576 234.912 416.656 264.656 416.656 264.656L420.912 255.312Z" fill="#41465A"/>
<path d="M447.024 238C456.976 248.04 472.624 260.48 482.288 256.32" stroke="#41465A" stroke-width="2.4" stroke-linecap="round" stroke-linejoin="round"/>
<path d="M431.608 221.92C431.608 221.92 430.32 215.928 424.408 216.984" stroke="#41465A" stroke-width="2.4" stroke-miterlimit="10"/>
<path d="M421.32 255.496C421.32 255.496 419.512 249.392 414.744 251.072C411.184 252.328 416.576 264.912 416.576 264.912L421.32 255.496Z" fill="#FFB3A4"/>
<path d="M330.864 519.936C358.064 523.344 382.296 524.816 393.688 524.672C396.639 530.392 399.277 536.267 401.592 542.272C404.792 555.584 410.824 575.232 417.024 595.32L430.512 678.944C417.568 687.328 387.712 692.688 358.312 693.24C353.376 683.352 347.552 671.64 341.72 658.84C340.92 669.443 339.853 680.779 338.52 692.848C308.12 690.992 282.84 683.128 284.272 667.056C292.664 572.656 275.296 521.856 269.392 509.08" fill="#2B303F"/>
<path d="M375.56 295.992C375.56 295.992 431.768 383.44 352.736 441.456C278.592 495.856 267.32 484.656 267.32 484.656L260.416 495.56C260.416 495.56 299.72 559.56 294.096 661.68C292.176 696.528 438.456 691.792 437.152 667.352C435.848 642.912 394.712 524.048 399.64 515.672C404.568 507.296 467.136 452.056 471.696 401.856C475.312 362.072 458.952 332.44 458.952 332.44L448.08 323.32C448.08 323.32 461.928 361.928 454.584 390.28C454.584 390.28 420.016 385.392 417.256 383.768C414.496 382.144 407.824 326.072 389.68 298.064C386.16 292.632 375.56 295.992 375.56 295.992Z" fill="#D6EAF2"/>
<path d="M489.736 593.68H535.336C537.994 593.68 540.544 594.736 542.424 596.616C544.304 598.496 545.36 601.046 545.36 603.704V607.432C545.36 610.08 544.313 612.62 542.447 614.498C540.581 616.376 538.047 617.439 535.4 617.456H489.8V593.68H489.736Z" fill="#EBF4F7" stroke="#6E8494" stroke-width="2.4" stroke-miterlimit="10"/>
<path d="M466.68 581.248C468.096 583.56 470.68 585.152 474.68 584.68C480.096 584.04 496.736 582.592 503.256 589.928C507.456 594.648 511.192 598.04 511.192 598.04C511.192 598.04 507.88 601.48 503.392 599.512C495.56 596.088 485.648 600.12 482.392 601.912C479.136 603.704 468.832 605.768 458.824 595.512C448.816 585.256 466.68 581.248 466.68 581.248Z" fill="#FFB3A4"/>
<path d="M366.408 515.76C396.568 551.104 455.632 593.696 461.424 597.656C466.016 600.8 475.624 594.672 469.72 586.088C463.464 576.968 422.344 503.408 398.352 477.72C398.808 445.888 401.432 352.696 383.152 322.6C368.4 298.264 332.696 314.384 325.048 336.096C314.856 365.096 313.192 422 351.664 494.184C353.592 497.808 360.44 509.2 366.408 515.76Z" fill="#FFB3A4"/>
<path d="M398.424 416.52C377.624 425.232 344.08 428.336 326.328 429.4C315.56 388.184 318.2 355.6 325.072 336.096C332.72 314.384 368.416 298.272 383.176 322.6C393.984 340.4 397.472 380.312 398.424 416.52Z" fill="#3A193F"/>
<path d="M314.44 419.6C314.44 419.6 370.48 423.352 399.488 410.64C399.488 410.64 406.272 302.384 354.432 305.84C292.2 310 314.44 419.6 314.44 419.6Z" fill="#039590"/>
<path d="M489.736 617.376C496.279 617.376 501.584 612.071 501.584 605.528C501.584 598.985 496.279 593.68 489.736 593.68C483.192 593.68 477.888 598.985 477.888 605.528C477.888 612.071 483.192 617.376 489.736 617.376Z" fill="white" stroke="#6E8494" stroke-width="2.4" stroke-miterlimit="10"/>
<path d="M486.824 602.584H476.776C475.433 602.584 474.344 603.673 474.344 605.016V605.92C474.344 607.263 475.433 608.352 476.776 608.352H486.824C488.167 608.352 489.256 607.263 489.256 605.92V605.016C489.256 603.673 488.167 602.584 486.824 602.584Z" fill="#EBF4F7" stroke="#6E8494" stroke-width="2.4" stroke-miterlimit="10"/>
<path d="M912.896 617.936H402.912C398.569 617.936 395.048 621.457 395.048 625.8V628.736C395.048 633.079 398.569 636.6 402.912 636.6H912.896C917.239 636.6 920.76 633.079 920.76 628.736V625.8C920.76 621.457 917.239 617.936 912.896 617.936Z" fill="white" stroke="#6E8494" stroke-width="2.4" stroke-miterlimit="10"/>
<path d="M898.424 636.592H880.432V981.184H898.424V636.592Z" fill="white" stroke="#6E8494" stroke-width="2.4" stroke-miterlimit="10"/>
<path d="M435.368 636.592H417.384V981.184H435.368V636.592Z" fill="white" stroke="#6E8494" stroke-width="2.4" stroke-miterlimit="10"/>
<path d="M417.384 636.592H435.368V644.288L417.384 642.368V636.592Z" fill="#9BAEBC"/>
<path d="M898.424 636.592V644.768L880.432 642.368V636.592H898.424Z" fill="#9BAEBC"/>
<path d="M450.216 250.872C450.216 250.872 446.552 248.04 440.24 250.872" stroke="#41465A" stroke-width="2.4" stroke-linecap="round" stroke-linejoin="round"/>
<path d="M445.145 261.34C445.412 259.798 444.664 258.381 443.473 258.175C442.282 257.968 441.1 259.05 440.833 260.592C440.565 262.133 441.314 263.55 442.505 263.757C443.695 263.963 444.877 262.881 445.145 261.34Z" fill="#242854"/>
<path d="M466.918 265.409C467.278 263.878 466.611 262.411 465.428 262.133C464.246 261.854 462.995 262.87 462.635 264.401C462.274 265.932 462.941 267.399 464.124 267.677C465.307 267.956 466.557 266.94 466.918 265.409Z" fill="#242854"/>
<path d="M458.2 259.2L459 273.6L454.128 275.368" stroke="#E2564B" stroke-width="2.4" stroke-linecap="round" stroke-linejoin="round"/>
<path d="M441.4 275.2C441.4 275.2 441.4 281.6 446.2 283.2" stroke="#41465A" stroke-width="2.4" stroke-linecap="round" stroke-linejoin="round"/>
<path d="M419.8 264.8C424.218 264.8 427.8 261.218 427.8 256.8C427.8 252.382 424.218 248.8 419.8 248.8C415.382 248.8 411.8 252.382 411.8 256.8C411.8 261.218 415.382 264.8 419.8 264.8Z" fill="#FFB3A4"/>
<path d="M708.209 438.731C708.676 437.486 708.216 436.162 707.182 435.774C706.147 435.386 704.93 436.081 704.463 437.326C703.996 438.571 704.456 439.895 705.49 440.283C706.524 440.671 707.742 439.976 708.209 438.731Z" fill="#242854"/>
<path d="M721.404 443.133C721.871 441.888 721.411 440.564 720.377 440.176C719.343 439.788 718.126 440.483 717.659 441.728C717.192 442.973 717.652 444.297 718.686 444.685C719.72 445.073 720.937 444.378 721.404 443.133Z" fill="#242854"/>
<path d="M713.312 438.032L707 444.8L709.592 449.752" stroke="#E2564B" stroke-width="2.4" stroke-linecap="round" stroke-linejoin="round"/>
<path d="M719.848 434C719.848 434 723 433.584 726.2 436.784" stroke="#41465A" stroke-width="2.4" stroke-linecap="round" stroke-linejoin="round"/>
<path d="M708.6 454.4C710.331 455.049 712.208 455.205 714.022 454.852C715.837 454.499 717.518 453.65 718.88 452.4" stroke="#41465A" stroke-width="2.4" stroke-linecap="round" stroke-linejoin="round"/>
<path d="M742.6 418.224C736.2 418.672 730.648 413.264 730.648 413.264C730.648 413.264 735.448 407.128 741.784 406.672C748.12 406.216 753.728 411.6 753.728 411.6C753.728 411.6 749 417.768 742.6 418.224Z" fill="#876E7D"/>
<path d="M719.608 405.648C722.672 411.248 730.232 413.048 730.232 413.048C730.232 413.048 732.832 405.728 729.776 400.112C726.72 394.496 719.152 392.712 719.152 392.712C719.152 392.712 716.552 400.032 719.608 405.648Z" fill="#876E7D"/>
<path d="M732.303 415.411C733.979 414.825 734.863 412.99 734.276 411.314C733.69 409.637 731.855 408.753 730.179 409.34C728.502 409.926 727.619 411.761 728.205 413.437C728.792 415.114 730.626 415.998 732.303 415.411Z" fill="#876E7D"/>
<path d="M730.112 414.328C730.112 414.328 745.464 426.584 744.032 443.928C744.368 444.136 747.232 443.928 747.232 443.928C747.232 443.928 752.344 428.896 738.672 416.664" fill="#876E7D"/>
</svg>
